<svg width="1440" height="1087" viewBox="0 0 1440 1087" fill="none" xmlns="http://www.w3.org/2000/svg">
<g clip-path="url(#clip0_2296_777)">
<rect x="-1" y="326" width="1441" height="542" fill="#FBBF03"/>
<path d="M1579.02 754.642C1556.38 710.983 1464.04 638.265 1275.78 696.664C1244.23 618.252 1035.23 585.154 874.356 668.029C770.354 555.205 328.023 625.247 353.39 813.742C325.082 805.791 258.163 799.744 216.953 839.159C170.508 805.425 48.3577 756.409 -68.6813 830.222C-110.8 879.236 -31.139 992.15 57.189 930.384C58.1458 1001.27 371.005 1192 642.005 998C772.882 1170.12 1304.51 1029 1304.51 891.5C1442 1033 1598.21 897.215 1579.02 754.642Z" fill="#FBBF03"/>
<path d="M-69.5002 302.544C-54.3364 245.305 88.5826 110.979 266 151.5C285.002 50.1982 529.5 -6.50023 613.5 71.4998C651.5 -2.50012 995.5 -32.5 1046.47 172.829C1059 128.83 1172.99 134.83 1172.99 181.476C1210.9 132.473 1285.63 91.1717 1400.5 162.33C1471 206.004 1518.16 294.391 1340.74 340.841C1303.31 522.031 1144.27 787.804 807.636 401.375C753.614 545.092 556.01 765.32 197.763 496.5C108.675 505.971 -69.5002 480.44 -69.5002 302.544Z" fill="#FBBF03"/>
<path d="M1175.84 736.28C1134.71 700.45 1147.49 727.795 1159.02 745.947C1124.33 777.502 1152.02 769.158 1170.19 761.042C1183.39 809.791 1186.43 779.281 1186.3 757.933C1236.47 754.144 1208.03 745.447 1187.55 741.572C1198.49 689.68 1184.3 716.422 1175.84 736.28Z" fill="#FFF7DD"/>
<path d="M243.671 631.477C256.306 604.337 243.831 615.235 236.014 624.077C214.096 610.588 222.708 623.916 229.754 632.267C206.057 646.645 222.608 643.606 233.845 640.289C243.477 666.166 243.736 649.847 242.661 638.453C271.69 636.328 255.43 632.917 243.671 631.477Z" fill="#F56F5E"/>
<path d="M-210 616C-231.333 671.833 -180.023 764.1 -88.4227 790.5C26.0773 823.5 0.499878 711 117.5 782.5C234.5 854 250.945 714.606 172 765.5C26.9649 859 328.5 843.5 348.381 773" stroke="#E97676" stroke-width="11" stroke-linecap="round"/>
<path d="M1264.73 666.474C1259.03 661.65 1250.5 662.361 1245.68 668.061C1240.86 673.762 1241.57 682.293 1247.27 687.116L1264.73 666.474ZM1309.43 682.85L1318.51 692.874L1309.43 682.85ZM1247.27 687.116C1253.61 692.485 1264.32 699.243 1276.63 702.303C1289.26 705.442 1305.18 704.934 1318.51 692.874L1300.36 672.826C1295.79 676.958 1290.18 677.805 1283.15 676.06C1275.81 674.236 1268.75 669.87 1264.73 666.474L1247.27 687.116ZM1318.51 692.874C1329.24 683.161 1337.78 678 1344.47 676.55C1349.72 675.413 1354.89 676.248 1361.34 682.897L1380.76 664.078C1368.48 651.412 1354.03 646.809 1338.74 650.122C1324.9 653.122 1311.99 662.3 1300.36 672.826L1318.51 692.874ZM1361.34 682.897C1368.89 690.695 1369.85 695 1372.54 700.294C1374.21 703.576 1377.22 708.392 1383.58 711.074C1388.74 713.249 1394.5 713.257 1399.64 712.941L1397.98 685.95C1393.32 686.237 1393.04 685.716 1394.08 686.154C1396.33 687.1 1397.12 688.973 1396.64 688.029C1395.04 684.871 1391.92 675.594 1380.76 664.078L1361.34 682.897ZM1399.64 712.941C1410.65 712.265 1417.44 705.013 1421.28 699.766C1423.27 697.036 1424.98 694.138 1426.37 691.741C1427.87 689.131 1428.96 687.182 1430.13 685.364C1432.86 681.135 1433.28 682.23 1431.45 682.594C1429.09 683.063 1429.99 681.18 1436.23 686.822L1454.37 666.769C1446.41 659.572 1436.86 653.95 1426.18 656.07C1416.04 658.085 1410.3 666.222 1407.4 670.714C1405.76 673.257 1404.18 676.089 1402.95 678.217C1401.6 680.556 1400.51 682.352 1399.44 683.808C1397.16 686.933 1396.79 686.024 1397.98 685.95L1399.64 712.941ZM1436.23 686.822C1439.5 689.778 1441.38 694.538 1441.84 702.297C1442.33 710.748 1441.14 717.825 1440.74 727.1C1440.57 730.879 1440.51 736.032 1441.89 740.718C1442.64 743.245 1443.99 746.354 1446.61 749.098C1449.39 752.016 1452.91 753.805 1456.7 754.487C1463.32 755.682 1469.83 753.341 1474.84 750.99C1480.38 748.386 1486.95 744.346 1494.71 738.927L1479.22 716.759C1471.96 721.831 1466.85 724.867 1463.34 726.512C1459.3 728.41 1459.38 727.493 1461.5 727.875C1463.03 728.152 1464.79 728.976 1466.18 730.443C1467.42 731.736 1467.78 732.909 1467.84 733.088C1467.89 733.261 1467.79 732.998 1467.74 732.033C1467.68 731.111 1467.68 729.888 1467.75 728.27C1467.99 722.747 1469.42 710.799 1468.83 700.714C1468.2 689.938 1465.29 676.651 1454.37 666.769L1436.23 686.822ZM1494.71 738.927C1510.48 727.908 1522.16 717.177 1530.24 707.111C1538.19 697.205 1543.28 687.132 1544.43 677.504C1545.64 667.358 1542.3 657.17 1533.17 651.152C1524.81 645.647 1514.47 645.576 1505.23 648.029L1512.18 674.164C1517.14 672.847 1518.68 673.989 1518.29 673.734C1517.13 672.968 1517.85 672.069 1517.58 674.307C1517.25 677.061 1515.34 682.467 1509.15 690.188C1503.08 697.749 1493.48 706.795 1479.22 716.759L1494.71 738.927Z" fill="#A7DBCB"/>
<path d="M1102.67 41.4773C1115.31 14.3367 1102.83 25.2353 1095.01 34.0772C1073.1 20.5879 1081.71 33.9165 1088.75 42.2669C1065.06 56.6453 1081.61 53.606 1092.85 50.289C1102.48 76.1662 1102.74 59.8474 1101.66 48.4534C1130.69 46.328 1114.43 42.9171 1102.67 41.4773Z" fill="#FFF7DD"/>
<path d="M1334.12 155.587C1254.27 178.594 1296.59 151.626 1327.73 135.267C1270.17 115.588 1307.48 114.159 1333.32 115.905C1309.97 81.4685 1331.42 97.5651 1345.07 109.918C1355.33 50.6221 1360.97 83.8799 1362.51 107.921C1389.02 82.5564 1381.25 103.756 1374.05 117.526C1397.76 111.434 1387.84 124.741 1379.91 132.157C1433.58 152.191 1399.04 152.821 1375.06 150.631C1397.87 181.015 1376.2 167.332 1362.51 156.692C1362.89 217.642 1351.44 184.75 1345.66 160.685C1341.74 158.173 1326.49 192.758 1334.12 155.587Z" fill="#FC7DA8"/>
</g>
<defs>
<clipPath id="clip0_2296_777">
<rect width="1440" height="1087" fill="white"/>
</clipPath>
</defs>
</svg>
