<svg width="1440" height="1072" viewBox="0 0 1440 1072" fill="none" xmlns="http://www.w3.org/2000/svg">
<rect x="-1" y="311" width="1441" height="542" fill="#FBBF03"/>
<path d="M1579.02 739.642C1556.38 695.983 1464.04 623.265 1275.78 681.664C1244.23 603.252 1035.23 570.154 874.356 653.029C770.354 540.205 328.023 610.247 353.39 798.742C325.082 790.791 258.163 784.744 216.953 824.159C170.508 790.425 48.3576 741.409 -68.6813 815.222C-110.8 864.236 -31.139 977.15 57.189 915.384C58.1457 986.265 371.005 1177 642.005 983C772.882 1155.12 1304.51 1014 1304.51 876.5C1442.01 1018 1598.21 882.215 1579.02 739.642Z" fill="#FBBF03"/>
<path d="M-69.5002 287.544C-54.3364 230.305 88.5826 95.9792 266 136.5C285.002 35.1982 529.5 -21.5002 613.5 56.4998C651.5 -17.5001 995.5 -47.5 1046.47 157.829C1059 113.83 1172.99 119.83 1172.99 166.476C1210.9 117.473 1285.63 76.1717 1400.5 147.33C1471 191.004 1518.16 279.391 1340.74 325.841C1303.31 507.031 1144.27 772.804 807.636 386.375C753.614 530.092 556.01 750.32 197.763 481.5C108.675 490.971 -69.5002 465.44 -69.5002 287.544Z" fill="#FBBF03"/>
</svg>
