<svg width="2248" height="1152" viewBox="0 0 2248 1152" fill="none" xmlns="http://www.w3.org/2000/svg">
<rect x="331" y="321" width="1614" height="542" fill="#FBBF03"/>
<path d="M331.285 297.889C346.449 240.65 489.368 106.324 666.785 146.845C685.788 45.5431 930.285 -11.1553 1014.29 66.8447C1052.29 -7.15515 1396.29 -37.1551 1447.25 168.174C1459.79 124.175 1573.78 130.175 1573.78 176.821C1611.69 127.818 1686.42 86.5167 1801.29 157.675C1844.52 184.461 1963.75 288.566 1943 329C1929.92 354.493 1810.13 318.225 1741.53 336.186C1704.09 517.376 1545.06 783.149 1208.42 396.72C1154.4 540.437 956.795 760.665 598.549 491.845C509.461 501.316 331.285 475.785 331.285 297.889Z" fill="#FBBF03"/>
<path d="M1945.12 864.786C1929.95 922.025 1787.03 1056.35 1609.62 1015.83C1590.62 1117.13 1346.12 1173.83 1262.12 1095.83C1224.12 1169.83 880.117 1199.83 829.151 994.501C816.618 1038.5 702.627 1032.5 702.627 985.853C664.717 1034.86 589.984 1076.16 475.117 1005C431.879 978.214 312.656 874.109 333.403 833.675C346.483 808.182 466.272 844.45 534.876 826.489C572.312 645.299 731.344 379.526 1067.98 765.955C1122 622.238 1319.61 402.01 1677.85 670.83C1766.94 661.359 1945.12 686.89 1945.12 864.786Z" fill="#FBBF03"/>
<ellipse cx="331.5" cy="580.5" rx="331.5" ry="290.5" fill="#FBBF03"/>
<ellipse cx="1937" cy="591.5" rx="311" ry="290.5" fill="#FBBF03"/>
<path d="M1579.84 736.28C1538.71 700.45 1551.49 727.795 1563.02 745.947C1528.33 777.502 1556.02 769.158 1574.19 761.042C1587.39 809.791 1590.43 779.281 1590.3 757.933C1640.47 754.144 1612.03 745.447 1591.55 741.572C1602.49 689.68 1588.3 716.422 1579.84 736.28Z" fill="#FFF7DD"/>
<path d="M647.671 631.477C660.306 604.337 647.831 615.235 640.014 624.077C618.096 610.588 626.708 623.916 633.754 632.267C610.057 646.645 626.608 643.606 637.845 640.289C647.477 666.166 647.736 649.847 646.661 638.453C675.69 636.328 659.429 632.917 647.671 631.477Z" fill="#F56F5E"/>
<path d="M194 616C172.667 671.833 223.977 764.1 315.577 790.5C430.077 823.5 404.5 711 521.5 782.5C638.5 854 654.945 714.606 576 765.5C430.965 859 732.5 843.5 752.381 773" stroke="#E97676" stroke-width="11" stroke-linecap="round"/>
<path d="M1668.73 666.474C1663.03 661.65 1654.5 662.361 1649.68 668.061C1644.86 673.762 1645.57 682.293 1651.27 687.116L1668.73 666.474ZM1713.43 682.85L1722.51 692.874L1713.43 682.85ZM1651.27 687.116C1657.61 692.485 1668.32 699.243 1680.63 702.303C1693.26 705.442 1709.18 704.934 1722.51 692.874L1704.36 672.826C1699.79 676.958 1694.18 677.805 1687.15 676.06C1679.81 674.236 1672.75 669.87 1668.73 666.474L1651.27 687.116ZM1722.51 692.874C1733.24 683.161 1741.78 678 1748.47 676.55C1753.72 675.413 1758.89 676.248 1765.34 682.897L1784.76 664.078C1772.48 651.412 1758.03 646.809 1742.74 650.122C1728.9 653.122 1715.99 662.3 1704.36 672.826L1722.51 692.874ZM1765.34 682.897C1772.89 690.695 1773.85 695 1776.54 700.294C1778.21 703.576 1781.22 708.392 1787.58 711.074C1792.74 713.249 1798.5 713.257 1803.64 712.941L1801.98 685.95C1797.32 686.237 1797.04 685.716 1798.08 686.154C1800.33 687.1 1801.12 688.973 1800.64 688.029C1799.04 684.871 1795.92 675.594 1784.76 664.078L1765.34 682.897ZM1803.64 712.941C1814.65 712.265 1821.44 705.013 1825.28 699.766C1827.27 697.036 1828.98 694.138 1830.37 691.741C1831.87 689.131 1832.96 687.182 1834.13 685.364C1836.86 681.135 1837.28 682.23 1835.45 682.594C1833.09 683.063 1833.99 681.18 1840.23 686.822L1858.37 666.769C1850.41 659.572 1840.86 653.95 1830.18 656.07C1820.04 658.085 1814.3 666.222 1811.4 670.714C1809.76 673.257 1808.18 676.089 1806.95 678.217C1805.6 680.556 1804.51 682.352 1803.44 683.808C1801.16 686.933 1800.79 686.024 1801.98 685.95L1803.64 712.941ZM1840.23 686.822C1843.5 689.778 1845.38 694.538 1845.84 702.297C1846.33 710.748 1845.14 717.825 1844.74 727.1C1844.57 730.879 1844.51 736.032 1845.89 740.718C1846.64 743.245 1847.99 746.354 1850.61 749.098C1853.39 752.016 1856.91 753.805 1860.7 754.487C1867.32 755.682 1873.83 753.341 1878.84 750.99C1884.38 748.386 1890.95 744.346 1898.71 738.927L1883.22 716.759C1875.96 721.831 1870.85 724.867 1867.34 726.512C1863.3 728.41 1863.38 727.493 1865.5 727.875C1867.03 728.152 1868.79 728.976 1870.18 730.443C1871.42 731.736 1871.78 732.909 1871.84 733.088C1871.89 733.261 1871.79 732.998 1871.74 732.033C1871.68 731.111 1871.68 729.888 1871.75 728.27C1871.99 722.747 1873.42 710.799 1872.83 700.714C1872.2 689.938 1869.29 676.651 1858.37 666.769L1840.23 686.822ZM1898.71 738.927C1914.48 727.908 1926.16 717.177 1934.24 707.111C1942.19 697.205 1947.28 687.132 1948.43 677.504C1949.64 667.358 1946.3 657.17 1937.17 651.152C1928.81 645.647 1918.47 645.576 1909.23 648.029L1916.18 674.164C1921.14 672.847 1922.68 673.989 1922.29 673.734C1921.13 672.968 1921.85 672.069 1921.58 674.307C1921.25 677.061 1919.34 682.467 1913.15 690.188C1907.08 697.749 1897.48 706.795 1883.22 716.759L1898.71 738.927Z" fill="#A7DBCB"/>
<path d="M1506.67 41.4773C1519.31 14.3367 1506.83 25.2353 1499.01 34.0772C1477.1 20.5879 1485.71 33.9165 1492.75 42.2669C1469.06 56.6453 1485.61 53.606 1496.85 50.289C1506.48 76.1662 1506.74 59.8474 1505.66 48.4534C1534.69 46.328 1518.43 42.9171 1506.67 41.4773Z" fill="#FFF7DD"/>
<path d="M1738.12 155.587C1658.27 178.594 1700.59 151.626 1731.73 135.267C1674.17 115.588 1711.48 114.159 1737.32 115.905C1713.97 81.4685 1735.42 97.5651 1749.07 109.918C1759.33 50.6221 1764.97 83.8799 1766.51 107.921C1793.02 82.5564 1785.25 103.756 1778.05 117.526C1801.76 111.434 1791.84 124.741 1783.91 132.157C1837.58 152.191 1803.04 152.821 1779.06 150.631C1801.87 181.015 1780.2 167.332 1766.51 156.692C1766.89 217.642 1755.44 184.75 1749.66 160.685C1745.74 158.173 1730.49 192.758 1738.12 155.587Z" fill="#FC7DA8"/>
</svg>
