<svg width="192" height="267" viewBox="0 0 192 267" fill="none" xmlns="http://www.w3.org/2000/svg">
<g clip-path="url(#clip0_2296_852)">
<rect x="1.14441e-05" y="-0.636719" width="191.012" height="267.416" rx="12.7341" fill="white"/>
<path d="M23.242 64V52.12H26.14V64H23.242ZM23.764 64V61.57H30.982V64H23.764ZM37.4624 64.252C36.5984 64.252 35.8184 64.12 35.1224 63.856C34.4264 63.592 33.8264 63.202 33.3224 62.686C32.8304 62.17 32.4524 61.534 32.1884 60.778C31.9244 60.01 31.7924 59.122 31.7924 58.114C31.7924 56.698 32.0384 55.534 32.5304 54.622C33.0344 53.698 33.7244 53.008 34.6004 52.552C35.4764 52.096 36.4664 51.868 37.5704 51.868C38.4224 51.868 39.1964 52 39.8924 52.264C40.5884 52.528 41.1824 52.918 41.6744 53.434C42.1784 53.95 42.5624 54.598 42.8264 55.378C43.1024 56.146 43.2404 57.034 43.2404 58.042C43.2404 59.086 43.0964 59.998 42.8084 60.778C42.5324 61.546 42.1364 62.188 41.6204 62.704C41.1164 63.22 40.5104 63.61 39.8024 63.874C39.0944 64.126 38.3144 64.252 37.4624 64.252ZM37.5524 61.984C38.1404 61.984 38.6324 61.84 39.0284 61.552C39.4364 61.252 39.7424 60.826 39.9464 60.274C40.1624 59.71 40.2704 59.026 40.2704 58.222C40.2704 57.37 40.1624 56.65 39.9464 56.062C39.7304 55.462 39.4124 55.012 38.9924 54.712C38.5844 54.4 38.0804 54.244 37.4804 54.244C36.9044 54.244 36.4124 54.394 36.0044 54.694C35.6084 54.982 35.3024 55.414 35.0864 55.99C34.8704 56.554 34.7624 57.25 34.7624 58.078C34.7624 58.702 34.8224 59.26 34.9424 59.752C35.0744 60.232 35.2544 60.64 35.4824 60.976C35.7104 61.3 35.9984 61.552 36.3464 61.732C36.7064 61.9 37.1084 61.984 37.5524 61.984ZM50.5054 64.252C49.6414 64.252 48.8614 64.12 48.1654 63.856C47.4694 63.592 46.8694 63.202 46.3654 62.686C45.8734 62.17 45.4954 61.534 45.2314 60.778C44.9674 60.01 44.8354 59.122 44.8354 58.114C44.8354 56.698 45.0814 55.534 45.5734 54.622C46.0774 53.698 46.7674 53.008 47.6434 52.552C48.5194 52.096 49.5094 51.868 50.6134 51.868C51.4654 51.868 52.2394 52 52.9354 52.264C53.6314 52.528 54.2254 52.918 54.7174 53.434C55.2214 53.95 55.6054 54.598 55.8694 55.378C56.1454 56.146 56.2834 57.034 56.2834 58.042C56.2834 59.086 56.1394 59.998 55.8514 60.778C55.5754 61.546 55.1794 62.188 54.6634 62.704C54.1594 63.22 53.5534 63.61 52.8454 63.874C52.1374 64.126 51.3574 64.252 50.5054 64.252ZM50.5954 61.984C51.1834 61.984 51.6754 61.84 52.0714 61.552C52.4794 61.252 52.7854 60.826 52.9894 60.274C53.2054 59.71 53.3134 59.026 53.3134 58.222C53.3134 57.37 53.2054 56.65 52.9894 56.062C52.7734 55.462 52.4554 55.012 52.0354 54.712C51.6274 54.4 51.1234 54.244 50.5234 54.244C49.9474 54.244 49.4554 54.394 49.0474 54.694C48.6514 54.982 48.3454 55.414 48.1294 55.99C47.9134 56.554 47.8054 57.25 47.8054 58.078C47.8054 58.702 47.8654 59.26 47.9854 59.752C48.1174 60.232 48.2974 60.64 48.5254 60.976C48.7534 61.3 49.0414 61.552 49.3894 61.732C49.7494 61.9 50.1514 61.984 50.5954 61.984ZM58.3104 64V52.12H61.2084V57.322C61.7964 57.058 62.3424 56.728 62.8464 56.332C63.3504 55.936 63.7944 55.504 64.1784 55.036C64.5744 54.568 64.8984 54.088 65.1504 53.596C65.4144 53.092 65.6064 52.6 65.7264 52.12H69.0744C68.9304 52.672 68.6964 53.236 68.3724 53.812C68.0484 54.376 67.6584 54.922 67.2024 55.45C66.7464 55.966 66.2544 56.428 65.7264 56.836C65.2104 57.244 64.6824 57.568 64.1424 57.808V58.078C64.6944 58.078 65.1804 58.138 65.6004 58.258C66.0324 58.378 66.4104 58.564 66.7344 58.816C67.0704 59.068 67.3584 59.386 67.5984 59.77C67.8504 60.142 68.0664 60.592 68.2464 61.12L69.2724 64H65.9784L65.3124 61.642C65.1684 61.114 64.9764 60.7 64.7364 60.4C64.4964 60.088 64.1784 59.866 63.7824 59.734C63.3864 59.59 62.8764 59.518 62.2524 59.518H61.2084V64H58.3104ZM70.8611 64V52.12H73.8131V64H70.8611ZM76.3104 64V52.12H80.0724L85.1664 60.094H85.3824L85.2024 52.12H88.0284V64H84.6264L79.1724 55.576H78.9744L79.1364 64H76.3104ZM95.2471 64.252C94.2751 64.252 93.3991 64.03 92.6191 63.586C91.8391 63.142 91.2211 62.476 90.7651 61.588C90.3211 60.688 90.0991 59.56 90.0991 58.204C90.0991 57.208 90.2251 56.32 90.4771 55.54C90.7411 54.76 91.1311 54.1 91.6471 53.56C92.1631 53.008 92.7931 52.588 93.5371 52.3C94.2931 52.012 95.1631 51.868 96.1471 51.868C96.8911 51.868 97.5631 51.952 98.1631 52.12C98.7751 52.288 99.3031 52.528 99.7471 52.84C100.191 53.152 100.533 53.524 100.773 53.956C101.025 54.388 101.157 54.874 101.169 55.414L98.4331 56.26C98.4211 55.816 98.3071 55.444 98.0911 55.144C97.8751 54.844 97.5871 54.616 97.2271 54.46C96.8671 54.292 96.4651 54.208 96.0211 54.208C95.3971 54.208 94.8691 54.352 94.4371 54.64C94.0171 54.916 93.6931 55.342 93.4651 55.918C93.2491 56.494 93.1411 57.214 93.1411 58.078C93.1411 58.726 93.2011 59.296 93.3211 59.788C93.4531 60.268 93.6451 60.67 93.8971 60.994C94.1491 61.318 94.4551 61.564 94.8151 61.732C95.1871 61.888 95.6251 61.966 96.1291 61.966C96.6331 61.966 97.0651 61.888 97.4251 61.732C97.7971 61.576 98.0911 61.336 98.3071 61.012C98.5231 60.688 98.6371 60.274 98.6491 59.77H96.5431V57.718H101.529V60.022V64H99.5491L99.5131 61.03H99.1531C98.9491 61.726 98.6851 62.314 98.3611 62.794C98.0371 63.274 97.6231 63.64 97.1191 63.892C96.6151 64.132 95.9911 64.252 95.2471 64.252ZM107.652 64V52.12H110.55V64H107.652ZM109.074 59.77V57.412H116.04V59.77H109.074ZM109.074 54.586V52.12H116.688V54.586H109.074ZM123.543 64.252C122.679 64.252 121.899 64.12 121.203 63.856C120.507 63.592 119.907 63.202 119.403 62.686C118.911 62.17 118.533 61.534 118.269 60.778C118.005 60.01 117.873 59.122 117.873 58.114C117.873 56.698 118.119 55.534 118.611 54.622C119.115 53.698 119.805 53.008 120.681 52.552C121.557 52.096 122.547 51.868 123.651 51.868C124.503 51.868 125.277 52 125.973 52.264C126.669 52.528 127.263 52.918 127.755 53.434C128.259 53.95 128.643 54.598 128.907 55.378C129.183 56.146 129.321 57.034 129.321 58.042C129.321 59.086 129.177 59.998 128.889 60.778C128.613 61.546 128.217 62.188 127.701 62.704C127.197 63.22 126.591 63.61 125.883 63.874C125.175 64.126 124.395 64.252 123.543 64.252ZM123.633 61.984C124.221 61.984 124.713 61.84 125.109 61.552C125.517 61.252 125.823 60.826 126.027 60.274C126.243 59.71 126.351 59.026 126.351 58.222C126.351 57.37 126.243 56.65 126.027 56.062C125.811 55.462 125.493 55.012 125.073 54.712C124.665 54.4 124.161 54.244 123.561 54.244C122.985 54.244 122.493 54.394 122.085 54.694C121.689 54.982 121.383 55.414 121.167 55.99C120.951 56.554 120.843 57.25 120.843 58.078C120.843 58.702 120.903 59.26 121.023 59.752C121.155 60.232 121.335 60.64 121.562 60.976C121.791 61.3 122.079 61.552 122.427 61.732C122.787 61.9 123.189 61.984 123.633 61.984ZM131.347 64V52.12H136.405C137.065 52.12 137.665 52.174 138.205 52.282C138.745 52.378 139.219 52.528 139.627 52.732C140.047 52.924 140.401 53.164 140.689 53.452C140.977 53.728 141.193 54.052 141.337 54.424C141.481 54.784 141.553 55.186 141.553 55.63C141.553 56.05 141.487 56.428 141.355 56.764C141.223 57.1 141.019 57.394 140.743 57.646C140.479 57.898 140.143 58.102 139.735 58.258C139.327 58.414 138.853 58.528 138.313 58.6V58.87C138.997 58.942 139.525 59.098 139.897 59.338C140.281 59.566 140.575 59.872 140.779 60.256C140.983 60.64 141.163 61.102 141.319 61.642L142.003 64H138.781L138.259 61.822C138.151 61.342 138.001 60.97 137.809 60.706C137.629 60.442 137.395 60.262 137.107 60.166C136.819 60.058 136.459 60.004 136.027 60.004H134.245V64H131.347ZM134.245 57.862H136.207C136.939 57.862 137.509 57.718 137.917 57.43C138.325 57.142 138.529 56.692 138.529 56.08C138.529 55.48 138.343 55.036 137.971 54.748C137.599 54.46 137.035 54.316 136.279 54.316H134.245V57.862ZM28.624 82.252C27.868 82.252 27.196 82.174 26.608 82.018C26.02 81.874 25.51 81.658 25.078 81.37C24.646 81.082 24.286 80.734 23.998 80.326C23.722 79.918 23.512 79.462 23.368 78.958C23.236 78.442 23.17 77.884 23.17 77.284V70.12H26.086V77.194C26.086 77.77 26.176 78.244 26.356 78.616C26.536 78.988 26.812 79.264 27.184 79.444C27.556 79.612 28.03 79.696 28.606 79.696C29.182 79.696 29.656 79.612 30.028 79.444C30.4 79.264 30.676 78.988 30.856 78.616C31.036 78.244 31.126 77.77 31.126 77.194V70.12H34.024V77.284C34.024 78.856 33.574 80.08 32.674 80.956C31.786 81.82 30.436 82.252 28.624 82.252ZM36.4432 82V70.12H40.2052L45.2992 78.094H45.5152L45.3352 70.12H48.1612V82H44.7592L39.3052 73.576H39.1072L39.2692 82H36.4432ZM50.6639 82V70.12H53.6159V82H50.6639ZM67.1291 84.826C66.2291 85.006 65.4611 85.12 64.8251 85.168C64.2011 85.216 63.6431 85.216 63.1511 85.168C62.6711 85.12 62.2031 85.048 61.7471 84.952C61.2911 84.856 60.7991 84.76 60.2711 84.664C59.7431 84.568 59.1191 84.496 58.3991 84.448C57.6791 84.4 56.7971 84.4 55.7531 84.448V82.09C56.0771 82.114 56.4791 82.12 56.9591 82.108C57.4511 82.108 57.9731 82.084 58.5251 82.036C59.0891 82 59.6471 81.946 60.1991 81.874C60.7511 81.802 61.2551 81.712 61.7111 81.604C62.1791 81.484 62.5451 81.346 62.8091 81.19V80.956C61.8251 81.244 60.9431 81.382 60.1631 81.37C59.3951 81.358 58.7231 81.22 58.1471 80.956C57.5831 80.692 57.1211 80.32 56.7611 79.84C56.4011 79.36 56.1311 78.796 55.9511 78.148C55.7711 77.5 55.6811 76.792 55.6811 76.024C55.6811 75.148 55.8011 74.338 56.0411 73.594C56.2811 72.838 56.6411 72.184 57.1211 71.632C57.6011 71.08 58.2011 70.648 58.9211 70.336C59.6411 70.024 60.4871 69.868 61.4591 69.868C62.6591 69.868 63.6791 70.114 64.5191 70.606C65.3711 71.098 66.0191 71.8 66.4631 72.712C66.9191 73.624 67.1471 74.716 67.1471 75.988C67.1471 77.14 66.9851 78.106 66.6611 78.886C66.3371 79.654 65.8871 80.278 65.3111 80.758C64.7471 81.238 64.0751 81.61 63.2951 81.874C62.5271 82.126 61.6931 82.306 60.7931 82.414V82.666C61.4531 82.738 62.0531 82.798 62.5931 82.846C63.1331 82.894 63.6491 82.918 64.1411 82.918C64.6331 82.918 65.1191 82.888 65.5991 82.828C66.0791 82.768 66.5891 82.666 67.1291 82.522V84.826ZM61.4771 80.002C62.1011 80.002 62.6171 79.864 63.0251 79.588C63.4331 79.3 63.7331 78.874 63.9251 78.31C64.1291 77.746 64.2311 77.038 64.2311 76.186C64.2311 75.31 64.1231 74.578 63.9071 73.99C63.7031 73.402 63.3851 72.958 62.9531 72.658C62.5331 72.346 62.0051 72.19 61.3691 72.19C60.7691 72.19 60.2591 72.34 59.8391 72.64C59.4311 72.928 59.1251 73.36 58.9211 73.936C58.7171 74.512 58.6151 75.232 58.6151 76.096C58.6151 76.96 58.7171 77.686 58.9211 78.274C59.1371 78.85 59.4611 79.282 59.8931 79.57C60.3251 79.858 60.8531 80.002 61.4771 80.002ZM74.5556 82.252C73.7996 82.252 73.1276 82.174 72.5396 82.018C71.9516 81.874 71.4416 81.658 71.0096 81.37C70.5776 81.082 70.2176 80.734 69.9296 80.326C69.6536 79.918 69.4436 79.462 69.2996 78.958C69.1676 78.442 69.1016 77.884 69.1016 77.284V70.12H72.0176V77.194C72.0176 77.77 72.1076 78.244 72.2876 78.616C72.4676 78.988 72.7436 79.264 73.1156 79.444C73.4876 79.612 73.9616 79.696 74.5376 79.696C75.1136 79.696 75.5876 79.612 75.9596 79.444C76.3316 79.264 76.6076 78.988 76.7876 78.616C76.9676 78.244 77.0576 77.77 77.0576 77.194V70.12H79.9556V77.284C79.9556 78.856 79.5056 80.08 78.6056 80.956C77.7176 81.82 76.3676 82.252 74.5556 82.252ZM82.3748 82V70.12H85.2908V82H82.3748ZM84.4808 82V79.66H91.8068V82H84.4808ZM84.4808 77.068V74.962H90.8888V77.068H84.4808ZM84.4808 72.442V70.12H91.7528V72.442H84.4808ZM102.472 82.252C101.5 82.252 100.624 82.03 99.8437 81.586C99.0637 81.142 98.4457 80.476 97.9897 79.588C97.5457 78.688 97.3237 77.56 97.3237 76.204C97.3237 75.208 97.4497 74.32 97.7017 73.54C97.9657 72.76 98.3557 72.1 98.8717 71.56C99.3877 71.008 100.018 70.588 100.762 70.3C101.518 70.012 102.388 69.868 103.372 69.868C104.116 69.868 104.788 69.952 105.388 70.12C106 70.288 106.528 70.528 106.972 70.84C107.416 71.152 107.758 71.524 107.998 71.956C108.25 72.388 108.382 72.874 108.394 73.414L105.658 74.26C105.646 73.816 105.532 73.444 105.316 73.144C105.1 72.844 104.812 72.616 104.452 72.46C104.092 72.292 103.69 72.208 103.246 72.208C102.622 72.208 102.094 72.352 101.662 72.64C101.242 72.916 100.918 73.342 100.69 73.918C100.474 74.494 100.366 75.214 100.366 76.078C100.366 76.726 100.426 77.296 100.546 77.788C100.678 78.268 100.87 78.67 101.122 78.994C101.374 79.318 101.68 79.564 102.04 79.732C102.412 79.888 102.85 79.966 103.354 79.966C103.858 79.966 104.29 79.888 104.65 79.732C105.022 79.576 105.316 79.336 105.532 79.012C105.748 78.688 105.862 78.274 105.874 77.77H103.768V75.718H108.754V78.022V82H106.774L106.738 79.03H106.378C106.174 79.726 105.91 80.314 105.586 80.794C105.262 81.274 104.848 81.64 104.344 81.892C103.84 82.132 103.216 82.252 102.472 82.252ZM110.869 82V70.12H113.785V82H110.869ZM112.975 82V79.66H120.301V82H112.975ZM112.975 77.068V74.962H119.383V77.068H112.975ZM112.975 72.442V70.12H120.247V72.442H112.975ZM127.199 82.252C126.335 82.252 125.555 82.12 124.859 81.856C124.163 81.592 123.563 81.202 123.059 80.686C122.567 80.17 122.189 79.534 121.925 78.778C121.661 78.01 121.529 77.122 121.529 76.114C121.529 74.698 121.775 73.534 122.267 72.622C122.771 71.698 123.461 71.008 124.337 70.552C125.213 70.096 126.203 69.868 127.307 69.868C128.159 69.868 128.933 70 129.629 70.264C130.325 70.528 130.919 70.918 131.411 71.434C131.915 71.95 132.299 72.598 132.563 73.378C132.839 74.146 132.977 75.034 132.977 76.042C132.977 77.086 132.833 77.998 132.545 78.778C132.269 79.546 131.873 80.188 131.357 80.704C130.853 81.22 130.247 81.61 129.539 81.874C128.831 82.126 128.051 82.252 127.199 82.252ZM127.289 79.984C127.877 79.984 128.369 79.84 128.765 79.552C129.173 79.252 129.479 78.826 129.683 78.274C129.899 77.71 130.007 77.026 130.007 76.222C130.007 75.37 129.899 74.65 129.683 74.062C129.467 73.462 129.149 73.012 128.729 72.712C128.321 72.4 127.817 72.244 127.217 72.244C126.641 72.244 126.149 72.394 125.741 72.694C125.345 72.982 125.039 73.414 124.823 73.99C124.607 74.554 124.499 75.25 124.499 76.078C124.499 76.702 124.559 77.26 124.679 77.752C124.811 78.232 124.991 78.64 125.219 78.976C125.447 79.3 125.735 79.552 126.083 79.732C126.443 79.9 126.845 79.984 127.289 79.984ZM135.509 77.932C135.461 77.416 135.491 76.996 135.599 76.672C135.719 76.336 135.881 76.06 136.085 75.844C136.289 75.616 136.511 75.424 136.751 75.268C137.003 75.1 137.243 74.938 137.471 74.782C137.699 74.626 137.885 74.446 138.029 74.242C138.173 74.026 138.245 73.762 138.245 73.45C138.245 73.03 138.119 72.73 137.867 72.55C137.627 72.358 137.297 72.262 136.877 72.262C136.613 72.262 136.325 72.298 136.013 72.37C135.713 72.43 135.407 72.52 135.095 72.64C134.795 72.748 134.501 72.874 134.213 73.018L134.087 70.57C134.435 70.402 134.783 70.27 135.131 70.174C135.491 70.066 135.851 69.988 136.211 69.94C136.571 69.88 136.913 69.85 137.237 69.85C137.765 69.85 138.257 69.916 138.713 70.048C139.169 70.18 139.571 70.384 139.919 70.66C140.279 70.924 140.561 71.26 140.765 71.668C140.969 72.064 141.071 72.538 141.071 73.09C141.071 73.594 140.987 74.014 140.819 74.35C140.663 74.686 140.459 74.974 140.207 75.214C139.955 75.454 139.691 75.67 139.415 75.862C139.139 76.042 138.875 76.228 138.623 76.42C138.371 76.6 138.167 76.81 138.011 77.05C137.867 77.29 137.801 77.584 137.813 77.932H135.509ZM136.787 82.234C136.163 82.234 135.695 82.102 135.383 81.838C135.083 81.574 134.933 81.166 134.933 80.614C134.933 80.05 135.083 79.636 135.383 79.372C135.695 79.108 136.163 78.976 136.787 78.976C137.423 78.976 137.897 79.108 138.209 79.372C138.521 79.636 138.677 80.05 138.677 80.614C138.677 81.694 138.047 82.234 136.787 82.234Z" fill="#9769EE"/>
<path d="M28.08 145L22.992 123.88H26.768L30.608 141.896H30.928L35.056 123.88H39.664L43.76 141.896H44.08L48.016 123.88H51.632L46.416 145H41.488L37.488 126.984H37.2L33.136 145H28.08ZM61.4468 145.416C60.1241 145.416 58.9508 145.224 57.9268 144.84C56.9028 144.435 56.0388 143.869 55.3348 143.144C54.6308 142.397 54.0974 141.512 53.7348 140.488C53.3721 139.443 53.1908 138.269 53.1908 136.968C53.1908 135.667 53.3721 134.472 53.7348 133.384C54.0974 132.275 54.6094 131.315 55.2708 130.504C55.9534 129.693 56.7854 129.064 57.7668 128.616C58.7694 128.168 59.9001 127.944 61.1588 127.944C62.3321 127.944 63.3774 128.136 64.2948 128.52C65.2334 128.904 66.0228 129.491 66.6628 130.28C67.3028 131.048 67.7828 132.019 68.1028 133.192C68.4228 134.344 68.5401 135.699 68.4548 137.256L55.4308 137.352V135.176L66.4068 135.08L65.1908 136.424C65.3188 135.144 65.2121 134.088 64.8708 133.256C64.5294 132.424 64.0388 131.805 63.3988 131.4C62.7588 130.995 62.0228 130.792 61.1908 130.792C60.2521 130.792 59.4308 131.037 58.7268 131.528C58.0441 131.997 57.5108 132.691 57.1268 133.608C56.7428 134.525 56.5508 135.624 56.5508 136.904C56.5508 138.824 56.9774 140.275 57.8308 141.256C58.6841 142.216 59.9001 142.696 61.4788 142.696C62.1401 142.696 62.7054 142.621 63.1748 142.472C63.6441 142.301 64.0388 142.088 64.3588 141.832C64.6788 141.555 64.9348 141.235 65.1268 140.872C65.3401 140.488 65.5108 140.093 65.6388 139.688L68.6788 140.392C68.4868 141.181 68.1881 141.885 67.7828 142.504C67.3988 143.101 66.9081 143.624 66.3108 144.072C65.7134 144.499 65.0094 144.829 64.1988 145.064C63.4094 145.299 62.4921 145.416 61.4468 145.416ZM69.9183 129.8C70.3023 128.819 70.5689 127.923 70.7183 127.112C70.8889 126.301 70.9849 125.523 71.0063 124.776C71.0489 124.008 71.0703 123.229 71.0703 122.44H74.3343C74.3343 123.656 74.2596 124.723 74.1102 125.64C73.9609 126.557 73.7583 127.357 73.5023 128.04C73.2463 128.723 72.9903 129.309 72.7343 129.8H69.9183ZM77.4313 145V122.44H80.8553V145H77.4313ZM85.65 145V122.44H89.074V145H85.65ZM103.056 145V133.64H100.176V130.952L104.432 131.176V130.6C103.834 130.408 103.333 130.131 102.928 129.768C102.544 129.384 102.245 128.947 102.032 128.456C101.84 127.944 101.744 127.4 101.744 126.824C101.744 125.928 101.957 125.149 102.384 124.488C102.81 123.805 103.408 123.283 104.176 122.92C104.965 122.536 105.882 122.344 106.928 122.344C107.802 122.344 108.592 122.461 109.296 122.696C110 122.909 110.576 123.197 111.024 123.56L110.704 126.76C110.256 126.397 109.733 126.099 109.136 125.864C108.538 125.629 107.952 125.512 107.376 125.512C106.693 125.512 106.128 125.725 105.68 126.152C105.253 126.557 105.04 127.197 105.04 128.072C105.04 128.605 105.125 129.053 105.296 129.416C105.466 129.779 105.69 130.077 105.968 130.312C106.245 130.525 106.522 130.696 106.8 130.824H110.8V133.64H106.448V145H103.056ZM113.963 145V128.36H117.419V145H113.963ZM115.691 125.576C114.944 125.576 114.379 125.427 113.995 125.128C113.611 124.808 113.419 124.339 113.419 123.72C113.419 123.123 113.611 122.664 113.995 122.344C114.379 122.024 114.944 121.864 115.691 121.864C116.459 121.864 117.035 122.024 117.419 122.344C117.803 122.664 117.995 123.123 117.995 123.72C117.995 124.339 117.803 124.808 117.419 125.128C117.035 125.427 116.459 125.576 115.691 125.576ZM122.244 145V134.76V128.36H125.252L125.06 133.544H125.604C125.902 132.264 126.297 131.219 126.788 130.408C127.3 129.576 127.94 128.957 128.708 128.552C129.497 128.147 130.414 127.944 131.46 127.944C133.316 127.944 134.724 128.605 135.684 129.928C136.665 131.251 137.156 133.267 137.156 135.976V145H133.636V136.328C133.636 134.472 133.358 133.117 132.804 132.264C132.249 131.389 131.417 130.952 130.308 130.952C129.348 130.952 128.526 131.261 127.844 131.88C127.182 132.477 126.67 133.267 126.308 134.248C125.945 135.229 125.742 136.296 125.7 137.448V145H122.244ZM147.664 145.416C146.256 145.416 145.04 145.053 144.016 144.328C142.992 143.581 142.213 142.557 141.68 141.256C141.146 139.933 140.88 138.408 140.88 136.68C140.88 134.995 141.125 133.501 141.616 132.2C142.128 130.877 142.874 129.843 143.856 129.096C144.858 128.349 146.085 127.976 147.536 127.976C148.688 127.976 149.637 128.211 150.384 128.68C151.13 129.128 151.728 129.747 152.176 130.536C152.645 131.325 152.997 132.2 153.232 133.16H153.872C153.765 132.541 153.658 131.901 153.552 131.24C153.445 130.557 153.36 129.907 153.296 129.288C153.232 128.648 153.2 128.083 153.2 127.592V122.44H156.72V136.808V145H153.68L153.808 140.392H153.232C152.976 141.437 152.613 142.333 152.144 143.08C151.674 143.827 151.066 144.403 150.32 144.808C149.594 145.213 148.709 145.416 147.664 145.416ZM148.624 142.472C149.37 142.472 150.032 142.301 150.608 141.96C151.184 141.619 151.664 141.171 152.048 140.616C152.432 140.061 152.72 139.464 152.912 138.824C153.125 138.163 153.232 137.544 153.232 136.968V136.52C153.232 136.093 153.168 135.635 153.04 135.144C152.933 134.632 152.752 134.131 152.496 133.64C152.261 133.128 151.962 132.669 151.6 132.264C151.237 131.859 150.8 131.539 150.288 131.304C149.797 131.048 149.242 130.92 148.624 130.92C147.728 130.92 146.97 131.176 146.352 131.688C145.754 132.179 145.296 132.861 144.976 133.736C144.656 134.611 144.496 135.613 144.496 136.744C144.496 137.896 144.656 138.909 144.976 139.784C145.317 140.637 145.797 141.299 146.416 141.768C147.034 142.237 147.77 142.472 148.624 142.472ZM31.696 177.416C30.2667 177.416 29.0293 177.192 27.984 176.744C26.96 176.296 26.1173 175.677 25.456 174.888C24.7947 174.099 24.304 173.192 23.984 172.168C23.664 171.144 23.504 170.045 23.504 168.872C23.504 167.613 23.6747 166.451 24.016 165.384C24.3573 164.296 24.8587 163.347 25.52 162.536C26.2027 161.704 27.0453 161.064 28.048 160.616C29.0507 160.168 30.2133 159.944 31.536 159.944C32.8373 159.944 33.968 160.168 34.928 160.616C35.9093 161.043 36.7093 161.661 37.328 162.472C37.9467 163.261 38.352 164.189 38.544 165.256L35.28 166.248C35.216 165.629 35.0347 165.053 34.736 164.52C34.4373 163.987 34.0107 163.571 33.456 163.272C32.9013 162.952 32.2293 162.792 31.44 162.792C30.6933 162.792 30.0427 162.941 29.488 163.24C28.9333 163.517 28.4747 163.933 28.112 164.488C27.7493 165.021 27.472 165.651 27.28 166.376C27.1093 167.101 27.024 167.901 27.024 168.776C27.024 169.971 27.184 171.016 27.504 171.912C27.8453 172.787 28.368 173.469 29.072 173.96C29.776 174.429 30.6613 174.664 31.728 174.664C32.624 174.664 33.36 174.504 33.936 174.184C34.512 173.864 34.96 173.437 35.28 172.904C35.6 172.349 35.8133 171.709 35.92 170.984L39.024 171.72C38.896 172.595 38.64 173.395 38.256 174.12C37.872 174.824 37.3707 175.421 36.752 175.912C36.1333 176.403 35.3973 176.776 34.544 177.032C33.712 177.288 32.7627 177.416 31.696 177.416ZM42.15 177V168.328V160.36H45.158L44.998 166.12H45.542C45.734 164.819 46.0327 163.709 46.438 162.792C46.8433 161.875 47.398 161.181 48.102 160.712C48.806 160.221 49.6807 159.976 50.726 159.976C50.9393 159.976 51.174 159.987 51.43 160.008C51.686 160.029 51.974 160.093 52.294 160.2L52.134 163.848C51.814 163.72 51.4833 163.635 51.142 163.592C50.8007 163.528 50.4913 163.496 50.214 163.496C49.3607 163.496 48.6353 163.741 48.038 164.232C47.4407 164.701 46.9393 165.363 46.534 166.216C46.15 167.048 45.8513 168.019 45.638 169.128V177H42.15ZM62.4155 177.416C61.0928 177.416 59.9195 177.224 58.8955 176.84C57.8715 176.435 57.0075 175.869 56.3035 175.144C55.5995 174.397 55.0662 173.512 54.7035 172.488C54.3408 171.443 54.1595 170.269 54.1595 168.968C54.1595 167.667 54.3408 166.472 54.7035 165.384C55.0662 164.275 55.5782 163.315 56.2395 162.504C56.9222 161.693 57.7542 161.064 58.7355 160.616C59.7382 160.168 60.8688 159.944 62.1275 159.944C63.3008 159.944 64.3462 160.136 65.2635 160.52C66.2022 160.904 66.9915 161.491 67.6315 162.28C68.2715 163.048 68.7515 164.019 69.0715 165.192C69.3915 166.344 69.5088 167.699 69.4235 169.256L56.3995 169.352V167.176L67.3755 167.08L66.1595 168.424C66.2875 167.144 66.1808 166.088 65.8395 165.256C65.4982 164.424 65.0075 163.805 64.3675 163.4C63.7275 162.995 62.9915 162.792 62.1595 162.792C61.2208 162.792 60.3995 163.037 59.6955 163.528C59.0128 163.997 58.4795 164.691 58.0955 165.608C57.7115 166.525 57.5195 167.624 57.5195 168.904C57.5195 170.824 57.9462 172.275 58.7995 173.256C59.6528 174.216 60.8688 174.696 62.4475 174.696C63.1088 174.696 63.6742 174.621 64.1435 174.472C64.6128 174.301 65.0075 174.088 65.3275 173.832C65.6475 173.555 65.9035 173.235 66.0955 172.872C66.3088 172.488 66.4795 172.093 66.6075 171.688L69.6475 172.392C69.4555 173.181 69.1568 173.885 68.7515 174.504C68.3675 175.101 67.8768 175.624 67.2795 176.072C66.6822 176.499 65.9782 176.829 65.1675 177.064C64.3782 177.299 63.4608 177.416 62.4155 177.416ZM77.2713 177.416C76.3539 177.416 75.5326 177.245 74.8073 176.904C74.0819 176.541 73.5059 176.008 73.0793 175.304C72.6739 174.6 72.4713 173.725 72.4713 172.68C72.4713 171.848 72.6206 171.133 72.9193 170.536C73.2393 169.917 73.7086 169.405 74.3273 169C74.9673 168.573 75.7779 168.232 76.7593 167.976C77.7406 167.699 78.9033 167.464 80.2473 167.272C80.9939 167.165 81.6019 167.059 82.0713 166.952C82.5619 166.845 82.9139 166.675 83.1273 166.44C83.3619 166.205 83.4793 165.853 83.4793 165.384C83.4793 164.659 83.2233 164.04 82.7113 163.528C82.2206 162.995 81.4206 162.728 80.3113 162.728C79.6926 162.728 79.0739 162.835 78.4553 163.048C77.8579 163.261 77.3353 163.613 76.8873 164.104C76.4606 164.573 76.1726 165.213 76.0233 166.024L72.8873 165.032C73.0793 164.221 73.3886 163.507 73.8153 162.888C74.2419 162.248 74.7753 161.715 75.4153 161.288C76.0553 160.84 76.7913 160.509 77.6233 160.296C78.4766 160.061 79.4046 159.944 80.4073 159.944C81.8793 159.944 83.0953 160.189 84.0553 160.68C85.0153 161.171 85.7299 161.928 86.1993 162.952C86.6899 163.955 86.9353 165.245 86.9353 166.824V170.216C86.9353 170.92 86.9459 171.667 86.9673 172.456C87.0099 173.224 87.0526 174.003 87.0953 174.792C87.1593 175.56 87.2339 176.296 87.3193 177H84.1513C84.0873 176.36 84.0233 175.699 83.9593 175.016C83.9166 174.333 83.8739 173.64 83.8313 172.936H83.3513C83.0526 173.747 82.6259 174.493 82.0713 175.176C81.5379 175.859 80.8659 176.403 80.0553 176.808C79.2659 177.213 78.3379 177.416 77.2713 177.416ZM78.4873 174.728C78.9353 174.728 79.3833 174.653 79.8313 174.504C80.3006 174.355 80.7593 174.131 81.2073 173.832C81.6766 173.512 82.1033 173.107 82.4873 172.616C82.8926 172.125 83.2446 171.539 83.5433 170.856L83.5113 167.848L84.3433 168.008C83.9806 168.328 83.5219 168.573 82.9673 168.744C82.4339 168.915 81.8473 169.053 81.2073 169.16C80.5673 169.245 79.9273 169.352 79.2873 169.48C78.6686 169.587 78.0926 169.747 77.5593 169.96C77.0473 170.152 76.6313 170.429 76.3113 170.792C76.0126 171.155 75.8633 171.656 75.8633 172.296C75.8633 173.085 76.1086 173.693 76.5993 174.12C77.0899 174.525 77.7193 174.728 78.4873 174.728ZM97.0915 177.352C95.4488 177.352 94.2222 176.904 93.4115 176.008C92.6222 175.112 92.2275 173.736 92.2275 171.88V163.208H89.7635L89.8275 160.36H91.4275C91.9822 160.36 92.3982 160.275 92.6755 160.104C92.9528 159.912 93.1235 159.581 93.1875 159.112L93.5075 156.648H95.5875V160.36H100.164V163.272H95.5875V171.784C95.5875 172.616 95.7795 173.213 96.1635 173.576C96.5475 173.939 97.1128 174.12 97.8595 174.12C98.2648 174.12 98.6702 174.077 99.0755 173.992C99.5022 173.885 99.9075 173.693 100.292 173.416V176.776C99.6515 176.989 99.0648 177.139 98.5315 177.224C97.9982 177.309 97.5182 177.352 97.0915 177.352ZM110.789 177.416C109.189 177.416 107.77 177.075 106.533 176.392C105.296 175.709 104.325 174.717 103.621 173.416C102.938 172.115 102.597 170.515 102.597 168.616C102.597 166.675 102.96 165.064 103.685 163.784C104.41 162.504 105.381 161.544 106.597 160.904C107.834 160.264 109.221 159.944 110.757 159.944C112.336 159.944 113.744 160.275 114.981 160.936C116.218 161.597 117.189 162.579 117.893 163.88C118.618 165.181 118.981 166.803 118.981 168.744C118.981 170.664 118.618 172.275 117.893 173.576C117.189 174.856 116.218 175.816 114.981 176.456C113.744 177.096 112.346 177.416 110.789 177.416ZM110.917 174.664C111.877 174.664 112.698 174.44 113.381 173.992C114.064 173.544 114.586 172.883 114.949 172.008C115.312 171.133 115.493 170.088 115.493 168.872C115.493 167.613 115.301 166.536 114.917 165.64C114.533 164.723 113.978 164.019 113.253 163.528C112.549 163.037 111.685 162.792 110.661 162.792C109.744 162.792 108.933 163.016 108.229 163.464C107.546 163.891 107.024 164.541 106.661 165.416C106.298 166.269 106.117 167.315 106.117 168.552C106.117 170.493 106.544 171.997 107.397 173.064C108.25 174.131 109.424 174.664 110.917 174.664ZM122.838 177V168.328V160.36H125.846L125.686 166.12H126.23C126.422 164.819 126.72 163.709 127.126 162.792C127.531 161.875 128.086 161.181 128.79 160.712C129.494 160.221 130.368 159.976 131.414 159.976C131.627 159.976 131.862 159.987 132.118 160.008C132.374 160.029 132.662 160.093 132.982 160.2L132.822 163.848C132.502 163.72 132.171 163.635 131.83 163.592C131.488 163.528 131.179 163.496 130.902 163.496C130.048 163.496 129.323 163.741 128.726 164.232C128.128 164.701 127.627 165.363 127.222 166.216C126.838 167.048 126.539 168.019 126.326 169.128V177H122.838ZM142.267 177.416C141.115 177.416 140.091 177.299 139.195 177.064C138.299 176.829 137.531 176.499 136.891 176.072C136.273 175.624 135.793 175.091 135.451 174.472C135.11 173.853 134.907 173.181 134.843 172.456L137.659 171.528C137.659 172.147 137.851 172.701 138.235 173.192C138.619 173.683 139.163 174.067 139.867 174.344C140.593 174.6 141.457 174.728 142.459 174.728C143.633 174.728 144.539 174.536 145.179 174.152C145.819 173.768 146.139 173.235 146.139 172.552C146.139 172.04 145.958 171.635 145.595 171.336C145.254 171.037 144.753 170.792 144.091 170.6C143.451 170.408 142.694 170.227 141.819 170.056C141.03 169.885 140.241 169.693 139.451 169.48C138.683 169.245 137.969 168.947 137.307 168.584C136.667 168.221 136.145 167.752 135.739 167.176C135.355 166.579 135.163 165.832 135.163 164.936C135.163 163.912 135.43 163.037 135.963 162.312C136.497 161.565 137.265 160.989 138.267 160.584C139.291 160.157 140.507 159.944 141.915 159.944C143.281 159.944 144.454 160.147 145.435 160.552C146.438 160.957 147.238 161.523 147.835 162.248C148.433 162.973 148.795 163.827 148.923 164.808L145.979 165.672C145.937 165.011 145.734 164.456 145.371 164.008C145.03 163.56 144.561 163.229 143.963 163.016C143.366 162.781 142.662 162.664 141.851 162.664C140.785 162.664 139.942 162.856 139.323 163.24C138.726 163.624 138.427 164.147 138.427 164.808C138.427 165.32 138.609 165.736 138.971 166.056C139.355 166.355 139.867 166.6 140.507 166.792C141.169 166.963 141.915 167.133 142.747 167.304C143.601 167.475 144.422 167.667 145.211 167.88C146.001 168.093 146.705 168.381 147.323 168.744C147.963 169.085 148.465 169.555 148.827 170.152C149.211 170.728 149.403 171.464 149.403 172.36C149.403 173.448 149.105 174.376 148.507 175.144C147.931 175.891 147.11 176.456 146.043 176.84C144.977 177.224 143.718 177.416 142.267 177.416ZM25.712 209V197.64H22.832V194.952L27.088 195.176V194.6C26.4907 194.408 25.9893 194.131 25.584 193.768C25.2 193.384 24.9013 192.947 24.688 192.456C24.496 191.944 24.4 191.4 24.4 190.824C24.4 189.928 24.6133 189.149 25.04 188.488C25.4667 187.805 26.064 187.283 26.832 186.92C27.6213 186.536 28.5387 186.344 29.584 186.344C30.4587 186.344 31.248 186.461 31.952 186.696C32.656 186.909 33.232 187.197 33.68 187.56L33.36 190.76C32.912 190.397 32.3893 190.099 31.792 189.864C31.1947 189.629 30.608 189.512 30.032 189.512C29.3493 189.512 28.784 189.725 28.336 190.152C27.9093 190.557 27.696 191.197 27.696 192.072C27.696 192.605 27.7813 193.053 27.952 193.416C28.1227 193.779 28.3467 194.077 28.624 194.312C28.9013 194.525 29.1787 194.696 29.456 194.824H33.456V197.64H29.104V209H25.712ZM43.8203 209.416C42.2203 209.416 40.8016 209.075 39.5643 208.392C38.3269 207.709 37.3563 206.717 36.6523 205.416C35.9696 204.115 35.6283 202.515 35.6283 200.616C35.6283 198.675 35.9909 197.064 36.7163 195.784C37.4416 194.504 38.4123 193.544 39.6283 192.904C40.8656 192.264 42.2523 191.944 43.7883 191.944C45.3669 191.944 46.7749 192.275 48.0123 192.936C49.2496 193.597 50.2203 194.579 50.9243 195.88C51.6496 197.181 52.0123 198.803 52.0123 200.744C52.0123 202.664 51.6496 204.275 50.9243 205.576C50.2203 206.856 49.2496 207.816 48.0123 208.456C46.7749 209.096 45.3776 209.416 43.8203 209.416ZM43.9483 206.664C44.9083 206.664 45.7296 206.44 46.4123 205.992C47.0949 205.544 47.6176 204.883 47.9803 204.008C48.3429 203.133 48.5243 202.088 48.5243 200.872C48.5243 199.613 48.3323 198.536 47.9483 197.64C47.5643 196.723 47.0096 196.019 46.2843 195.528C45.5803 195.037 44.7163 194.792 43.6923 194.792C42.7749 194.792 41.9643 195.016 41.2603 195.464C40.5776 195.891 40.0549 196.541 39.6923 197.416C39.3296 198.269 39.1483 199.315 39.1483 200.552C39.1483 202.493 39.5749 203.997 40.4283 205.064C41.2816 206.131 42.4549 206.664 43.9483 206.664ZM55.8688 209V200.328V192.36H58.8768L58.7168 198.12H59.2608C59.4528 196.819 59.7514 195.709 60.1568 194.792C60.5621 193.875 61.1168 193.181 61.8208 192.712C62.5248 192.221 63.3994 191.976 64.4448 191.976C64.6581 191.976 64.8928 191.987 65.1488 192.008C65.4048 192.029 65.6928 192.093 66.0128 192.2L65.8528 195.848C65.5328 195.72 65.2021 195.635 64.8608 195.592C64.5194 195.528 64.2101 195.496 63.9328 195.496C63.0794 195.496 62.3541 195.741 61.7568 196.232C61.1594 196.701 60.6581 197.363 60.2528 198.216C59.8688 199.048 59.5701 200.019 59.3568 201.128V209H55.8688ZM82.98 214.632C82.1267 214.632 81.2627 214.536 80.388 214.344C79.5347 214.173 78.7453 213.896 78.02 213.512C77.2947 213.149 76.6867 212.669 76.196 212.072L77.604 209.32C78.1587 210.045 78.9053 210.589 79.844 210.952C80.7827 211.336 81.7747 211.528 82.82 211.528C84.0147 211.528 84.996 211.272 85.764 210.76C86.5533 210.269 87.1507 209.501 87.556 208.456C87.9613 207.411 88.1747 206.099 88.196 204.52L88.484 201.32H87.876C87.6413 202.835 87.268 204.051 86.756 204.968C86.2653 205.885 85.6573 206.547 84.932 206.952C84.2067 207.357 83.3533 207.56 82.372 207.56C81.156 207.56 80.132 207.261 79.3 206.664C78.4893 206.045 77.8707 205.139 77.444 203.944C77.0387 202.728 76.836 201.245 76.836 199.496V192.36H80.292V198.728C80.292 200.755 80.5587 202.237 81.092 203.176C81.6467 204.115 82.468 204.584 83.556 204.584C84.1533 204.584 84.6867 204.435 85.156 204.136C85.6253 203.837 86.0307 203.4 86.372 202.824C86.7347 202.227 87.012 201.491 87.204 200.616C87.4173 199.741 87.5453 198.728 87.588 197.576V192.36H91.076V204.68C91.076 206.003 90.9693 207.197 90.756 208.264C90.5427 209.309 90.212 210.227 89.764 211.016C89.3373 211.827 88.804 212.499 88.164 213.032C87.524 213.587 86.7667 213.992 85.892 214.248C85.0387 214.504 84.068 214.632 82.98 214.632ZM103.07 209.416C101.47 209.416 100.052 209.075 98.8143 208.392C97.5769 207.709 96.6063 206.717 95.9023 205.416C95.2196 204.115 94.8783 202.515 94.8783 200.616C94.8783 198.675 95.2409 197.064 95.9663 195.784C96.6916 194.504 97.6623 193.544 98.8783 192.904C100.116 192.264 101.502 191.944 103.038 191.944C104.617 191.944 106.025 192.275 107.262 192.936C108.5 193.597 109.47 194.579 110.174 195.88C110.9 197.181 111.262 198.803 111.262 200.744C111.262 202.664 110.9 204.275 110.174 205.576C109.47 206.856 108.5 207.816 107.262 208.456C106.025 209.096 104.628 209.416 103.07 209.416ZM103.198 206.664C104.158 206.664 104.98 206.44 105.662 205.992C106.345 205.544 106.868 204.883 107.23 204.008C107.593 203.133 107.774 202.088 107.774 200.872C107.774 199.613 107.582 198.536 107.198 197.64C106.814 196.723 106.26 196.019 105.534 195.528C104.83 195.037 103.966 194.792 102.942 194.792C102.025 194.792 101.214 195.016 100.51 195.464C99.8276 195.891 99.3049 196.541 98.9423 197.416C98.5796 198.269 98.3983 199.315 98.3983 200.552C98.3983 202.493 98.8249 203.997 99.6783 205.064C100.532 206.131 101.705 206.664 103.198 206.664ZM120.559 209.416C118.681 209.416 117.263 208.776 116.303 207.496C115.343 206.195 114.863 204.243 114.863 201.64V192.36H118.351V201.256C118.351 203.005 118.617 204.307 119.151 205.16C119.684 206.013 120.527 206.44 121.679 206.44C122.319 206.44 122.884 206.28 123.375 205.96C123.865 205.64 124.292 205.192 124.655 204.616C125.039 204.04 125.337 203.368 125.551 202.6C125.785 201.811 125.945 200.947 126.031 200.008V192.36H129.487V202.088V209H126.543L126.703 203.72H126.159C125.881 205.043 125.487 206.131 124.975 206.984C124.484 207.816 123.865 208.435 123.119 208.84C122.393 209.224 121.54 209.416 120.559 209.416Z" fill="#040404"/>
<path d="M168.406 246.289C167.711 184.518 154.211 215.924 147.548 239.348C94.7079 233.796 122.634 250.916 143.203 260.17C111.916 308.059 140.016 287.643 157.977 271.448C198.998 311.009 184.919 280.413 172.752 260.17C224.896 230.326 191.582 238.481 168.406 246.289Z" fill="#F56F5E"/>
<path d="M4.73399 -14.526C-0.966288 -19.3497 -9.49762 -18.6391 -14.3213 -12.9388C-19.1449 -7.23849 -18.4343 1.29285 -12.734 6.1165L4.73399 -14.526ZM49.4327 1.85028L58.5063 11.8743L49.4327 1.85028ZM-12.734 6.1165C-6.38973 11.4851 4.31595 18.2427 16.632 21.3032C29.2649 24.4424 45.183 23.9345 58.5063 11.8743L40.359 -8.17369C35.7949 -4.04225 30.1755 -3.19527 23.1534 -4.94024C15.8144 -6.76396 8.74751 -11.1298 4.73399 -14.526L-12.734 6.1165ZM58.5063 11.8743C69.2367 2.16114 77.7773 -2.99988 84.469 -4.44983C89.7179 -5.58717 94.8944 -4.75199 101.337 1.89659L120.757 -16.9219C108.483 -29.5878 94.0316 -34.1909 78.7425 -30.8781C64.8961 -27.8779 51.988 -18.7002 40.359 -8.17369L58.5063 11.8743ZM101.337 1.89659C108.894 9.69483 109.85 13.9998 112.544 19.2936C114.214 22.5761 117.217 27.3919 123.583 30.0741C128.744 32.2488 134.504 32.2568 139.643 31.9409L137.985 4.95031C133.317 5.23717 133.043 4.71599 134.083 5.15445C136.328 6.10042 137.125 7.97278 136.645 7.02936C135.037 3.87124 131.917 -5.40558 120.757 -16.9219L101.337 1.89659ZM139.643 31.9409C150.649 31.2645 157.44 24.0129 161.276 18.7657C163.271 16.0362 164.981 13.1384 166.365 10.7407C167.873 8.13077 168.96 6.1817 170.132 4.36407C172.858 0.134666 173.282 1.23018 171.453 1.59357C169.09 2.06307 169.991 0.179888 176.227 5.82178L194.369 -14.2313C186.413 -21.4284 176.859 -27.0504 166.184 -24.9296C156.043 -22.9149 150.298 -14.778 147.402 -10.2857C145.763 -7.74252 144.177 -4.91071 142.949 -2.78344C141.598 -0.443972 140.509 1.35176 139.444 2.80827C137.16 5.93328 136.786 5.02398 137.985 4.95031L139.643 31.9409ZM176.227 5.82178C179.495 8.77846 181.382 13.5378 181.837 21.2969C182.332 29.7479 181.14 36.8253 180.738 46.1C180.575 49.8793 180.515 55.0322 181.893 59.7181C182.636 62.2446 183.994 65.354 186.609 68.0981C189.389 71.0157 192.914 72.8046 196.7 73.4875C203.324 74.6822 209.827 72.3415 214.836 69.9897C220.381 67.3857 226.948 63.3461 234.705 57.9268L219.22 35.7586C211.959 40.8306 206.847 43.8666 203.342 45.5123C199.3 47.4102 199.381 46.4932 201.501 46.8754C203.034 47.1521 204.787 47.9757 206.185 49.4425C207.417 50.736 207.783 51.9094 207.836 52.0882C207.886 52.2606 207.79 51.9977 207.735 51.0329C207.683 50.1105 207.685 48.8877 207.755 47.2701C207.994 41.747 209.423 29.799 208.832 19.7143C208.2 8.93768 205.292 -4.34905 194.369 -14.2313L176.227 5.82178ZM234.705 57.9268C250.479 46.9081 262.164 36.1771 270.24 26.1109C278.189 16.2048 283.285 6.13236 284.431 -3.49617C285.639 -13.6422 282.303 -23.8301 273.168 -29.8475C264.811 -35.3531 254.467 -35.4236 245.234 -32.9705L252.177 -6.83561C257.136 -8.15294 258.679 -7.01105 258.292 -7.26574C257.128 -8.03228 257.846 -8.93092 257.579 -6.69346C257.251 -3.93857 255.344 1.46653 249.149 9.18773C243.082 16.7489 233.483 25.7949 219.22 35.7586L234.705 57.9268Z" fill="#FF8383" fill-opacity="0.25"/>
</g>
<defs>
<clipPath id="clip0_2296_852">
<rect width="191.012" height="266.143" rx="12.7341" fill="white"/>
</clipPath>
</defs>
</svg>
