<svg width="294" height="75" viewBox="0 0 294 75" fill="none" xmlns="http://www.w3.org/2000/svg">
<g clip-path="url(#clip0_2296_676)">
<path d="M36.5666 72.7645C56.0427 72.7645 71.8312 56.976 71.8312 37.4999C71.8312 18.0238 56.0427 2.23531 36.5666 2.23531C17.0905 2.23531 1.302 18.0238 1.302 37.4999C1.302 56.976 17.0905 72.7645 36.5666 72.7645Z" fill="#FC4581" stroke="white" stroke-width="1.82833"/>
<path d="M54.888 8.44026H18.2457C18.8997 8.02698 19.5679 7.63561 20.2504 7.26617C25.0846 4.64998 30.4791 3.24001 35.9751 3.15619H37.1586C37.8161 3.16558 38.4682 3.19644 39.1163 3.24341C44.7212 3.65106 50.1387 5.43616 54.888 8.44026Z" fill="#DB1B1B"/>
<path d="M61.358 13.7243H11.7752C11.8074 13.6894 11.841 13.6558 11.8745 13.6209C12.5007 12.9769 13.147 12.3583 13.8134 11.7652C14.4548 11.199 15.1172 10.6555 15.8007 10.1349C16.5896 9.53645 17.4108 8.96886 18.2454 8.44019H54.8877C57.2514 9.93175 59.4242 11.7062 61.358 13.7243Z" fill="white"/>
<path d="M65.5191 19.007H7.61443C8.10419 18.2435 8.62347 17.4975 9.17093 16.7769C9.97906 15.7097 10.8487 14.6904 11.7754 13.7243H61.3581C62.9133 15.3459 64.3069 17.1152 65.5191 19.007Z" fill="#DB1B1B"/>
<path d="M68.2847 24.2911H4.84909C5.01548 23.8885 5.18991 23.494 5.37374 23.0996C5.95758 21.8365 6.61763 20.61 7.35023 19.427C7.43745 19.2928 7.52601 19.1479 7.6186 19.007H65.5193C66.5929 20.6846 67.5182 22.4527 68.2847 24.2911Z" fill="white"/>
<path d="M69.9967 29.5739H3.1367C3.32814 28.7554 3.55177 27.9503 3.80761 27.1586C4.11444 26.1818 4.46331 25.2264 4.85423 24.2925H68.2845C68.9984 26.0033 69.571 27.7696 69.9967 29.5739Z" fill="#DB1B1B"/>
<path d="M70.8165 34.8578H2.31691C2.45138 33.0777 2.72551 31.3109 3.13676 29.5737H69.9967C70.4079 31.3109 70.6821 33.0777 70.8165 34.8578Z" fill="white"/>
<path d="M70.9172 37.4999C70.9172 38.3882 70.8836 39.2689 70.8165 40.142H2.31688C2.24979 39.2698 2.21625 38.3891 2.21625 37.4999V35.7891C2.21638 35.8337 2.22893 35.8774 2.25248 35.9153C2.25248 35.8227 2.26053 35.7301 2.26589 35.6388C2.27931 35.3772 2.29676 35.1182 2.31688 34.8579H70.8165C70.8836 35.7301 70.9172 36.6108 70.9172 37.4999Z" fill="#DB1B1B"/>
<path d="M70.8165 40.1419C70.6822 41.922 70.408 43.6888 69.9967 45.426H3.13676C2.7254 43.6888 2.45127 41.922 2.31691 40.1419H70.8165Z" fill="white"/>
<path d="M69.9967 45.426C69.5719 47.2309 68.9992 48.9978 68.2845 50.7087H4.84886C4.13413 48.9978 3.56147 47.2309 3.1367 45.426H69.9967Z" fill="#DB1B1B"/>
<path d="M68.2847 50.7087C67.5191 52.5475 66.5937 54.3156 65.5193 55.9928H7.61457C6.54011 54.3156 5.61474 52.5475 4.84909 50.7087H68.2847Z" fill="white"/>
<path d="M65.5192 55.9927C64.3078 57.8852 62.9147 59.6549 61.3596 61.2768H11.7755C10.2204 59.6549 8.8273 57.8852 7.6159 55.9927H65.5192Z" fill="#DB1B1B"/>
<path d="M61.358 61.2769C59.4232 63.2938 57.2505 65.0682 54.8877 66.561H18.2454C15.8827 65.0682 13.71 63.2938 11.7752 61.2769H61.358Z" fill="white"/>
<path d="M54.888 66.5608C49.6006 69.9082 43.4948 71.738 37.2378 71.8502H35.896C29.6378 71.741 23.5301 69.9135 18.2404 66.5675L54.888 66.5608Z" fill="#DB1B1B"/>
<path d="M39.1161 3.24341V40.1433H2.3168C2.24971 39.2702 2.21616 38.3891 2.21616 37.4999V35.7891C2.2163 35.8337 2.22884 35.8774 2.25239 35.9153C2.25239 35.8227 2.26044 35.7301 2.26581 35.6388C2.27923 35.3772 2.29667 35.1182 2.3168 34.8579C2.45127 33.0778 2.7254 31.311 3.13665 29.5738C3.32808 28.7553 3.55172 27.9502 3.80756 27.1586C4.11438 26.1817 4.46326 25.2264 4.85417 24.2925C5.02056 23.8899 5.19499 23.4954 5.37882 23.1009C5.96266 21.8378 6.62271 20.6114 7.35532 19.4284C7.44253 19.2942 7.53109 19.1493 7.62368 19.0084C8.11344 18.2449 8.63272 17.4988 9.18018 16.7783C9.98524 15.7108 10.8517 14.6911 11.7753 13.7243C11.8075 13.6894 11.841 13.6559 11.8745 13.621C12.5007 12.9769 13.147 12.3584 13.8135 11.7653C14.4549 11.199 15.1173 10.6556 15.8007 10.135C16.5897 9.53652 17.4109 8.96893 18.2455 8.44026C18.8994 8.02698 19.5676 7.63561 20.2502 7.26617C25.0843 4.64998 30.4788 3.24001 35.9749 3.15619H37.1584C37.8159 3.16558 38.468 3.19644 39.1161 3.24341Z" fill="#3E436D"/>
<path d="M35.1443 5.35012L35.6139 6.79525C35.6298 6.84434 35.6608 6.88714 35.7025 6.91752C35.7442 6.94789 35.7945 6.96427 35.8461 6.96432H37.3717C37.4224 6.96631 37.4712 6.98403 37.5114 7.01504C37.5516 7.04604 37.5811 7.08878 37.5958 7.13733C37.6106 7.18587 37.6098 7.2378 37.5937 7.28591C37.5776 7.33402 37.5469 7.37592 37.5059 7.40578L36.2755 8.29943C36.2344 8.32919 36.2037 8.37114 36.1878 8.41931C36.1719 8.46747 36.1716 8.51943 36.1869 8.56779L36.6565 10.0143C36.671 10.063 36.6698 10.115 36.6533 10.1631C36.6368 10.2111 36.6057 10.2528 36.5643 10.2824C36.523 10.3119 36.4734 10.3278 36.4226 10.3278C36.3718 10.3279 36.3222 10.3121 36.2808 10.2826L35.0517 9.38898C35.0099 9.35885 34.9597 9.34263 34.9081 9.34263C34.8566 9.34263 34.8064 9.35885 34.7646 9.38898L33.5341 10.2826C33.4927 10.3121 33.4431 10.3279 33.3923 10.3278C33.3415 10.3278 33.292 10.3119 33.2506 10.2824C33.2093 10.2528 33.1782 10.2111 33.1616 10.1631C33.1451 10.115 33.144 10.063 33.1584 10.0143L33.6294 8.56779C33.6441 8.51939 33.6434 8.46763 33.6276 8.41959C33.6117 8.37156 33.5814 8.32959 33.5408 8.29943L32.3104 7.40578C32.2688 7.37542 32.2379 7.33269 32.222 7.2837C32.2062 7.23471 32.2062 7.18197 32.2221 7.133C32.2381 7.08404 32.2691 7.04136 32.3107 7.01106C32.3523 6.98077 32.4025 6.96441 32.454 6.96432H33.9742C34.0258 6.96407 34.0759 6.94761 34.1176 6.91726C34.1593 6.88692 34.1903 6.84423 34.2064 6.79525L34.676 5.35012C34.691 5.29963 34.7219 5.25533 34.764 5.22382C34.8062 5.19232 34.8575 5.17529 34.9102 5.17529C34.9628 5.17529 35.0141 5.19232 35.0563 5.22382C35.0985 5.25533 35.1293 5.29963 35.1443 5.35012Z" fill="white"/>
<path d="M18.8306 8.44038C18.8183 8.48427 18.8183 8.53068 18.8306 8.57456L19.3015 10.0184C19.316 10.0671 19.3148 10.1191 19.2983 10.1671C19.2818 10.2152 19.2507 10.2569 19.2093 10.2864C19.168 10.316 19.1184 10.3319 19.0676 10.3319C19.0168 10.332 18.9672 10.3162 18.9258 10.2867L17.6954 9.39441C17.6538 9.36439 17.6038 9.34824 17.5525 9.34824C17.5012 9.34824 17.4512 9.36439 17.4096 9.39441L16.1791 10.2867C16.1458 10.3114 16.1067 10.3271 16.0655 10.3323C16.0244 10.3376 15.9826 10.3322 15.9441 10.3168C15.9057 10.3013 15.8718 10.2762 15.8458 10.244C15.8197 10.2117 15.8024 10.1733 15.7954 10.1324C16.5844 9.53396 17.4055 8.96637 18.2402 8.4377C18.8941 8.02442 19.5623 7.63306 20.2448 7.26361C20.2294 7.31796 20.1958 7.36535 20.1496 7.39779L18.9191 8.29144C18.8727 8.32884 18.8412 8.38171 18.8306 8.44038Z" fill="white"/>
<path d="M35.1444 16.5973L35.614 18.0438C35.6299 18.0928 35.661 18.1354 35.7027 18.1655C35.7444 18.1957 35.7947 18.2118 35.8461 18.2115H37.3718C37.4233 18.2116 37.4734 18.228 37.5151 18.2583C37.5567 18.2886 37.5877 18.3313 37.6036 18.3802C37.6195 18.4292 37.6196 18.4819 37.6037 18.5309C37.5879 18.5799 37.557 18.6226 37.5154 18.653L36.2849 19.5466C36.2438 19.5764 36.2132 19.6184 36.1973 19.6665C36.1814 19.7147 36.1811 19.7666 36.1964 19.815L36.6606 21.2642C36.6751 21.3129 36.6739 21.3649 36.6574 21.413C36.6409 21.461 36.6098 21.5027 36.5684 21.5323C36.5271 21.5618 36.4775 21.5777 36.4267 21.5777C36.3759 21.5778 36.3263 21.562 36.2849 21.5325L35.0558 20.6389C35.014 20.6087 34.9638 20.5925 34.9122 20.5925C34.8607 20.5925 34.8105 20.6087 34.7687 20.6389L33.5382 21.5325C33.4968 21.562 33.4472 21.5778 33.3964 21.5777C33.3456 21.5777 33.2961 21.5618 33.2547 21.5323C33.2134 21.5027 33.1823 21.461 33.1657 21.413C33.1492 21.3649 33.1481 21.3129 33.1625 21.2642L33.6335 19.8177C33.6482 19.7693 33.6475 19.7175 33.6317 19.6695C33.6158 19.6215 33.5855 19.5795 33.5449 19.5493L32.3145 18.6557C32.2729 18.6253 32.242 18.5826 32.2261 18.5336C32.2103 18.4846 32.2103 18.4319 32.2262 18.3829C32.2422 18.3339 32.2732 18.2913 32.3148 18.261C32.3564 18.2307 32.4066 18.2143 32.4581 18.2142H33.9783C34.0298 18.2143 34.0799 18.1981 34.1216 18.168C34.1633 18.1378 34.1944 18.0953 34.2105 18.0465L34.6801 16.6C34.6958 16.551 34.7266 16.5081 34.7682 16.4777C34.8097 16.4472 34.8598 16.4306 34.9113 16.4303C34.9628 16.43 35.0131 16.446 35.0549 16.476C35.0968 16.506 35.1281 16.5485 35.1444 16.5973Z" fill="white"/>
<path d="M26.467 16.5973L26.9366 18.0437C26.9525 18.0927 26.9836 18.1353 27.0253 18.1654C27.067 18.1956 27.1172 18.2117 27.1687 18.2115H28.689C28.7405 18.2115 28.7906 18.2279 28.8323 18.2582C28.8739 18.2885 28.9049 18.3312 28.9208 18.3801C28.9367 18.4291 28.9368 18.4818 28.9209 18.5308C28.9051 18.5798 28.8742 18.6226 28.8326 18.6529L27.6021 19.5466C27.5612 19.5765 27.5307 19.6184 27.5148 19.6665C27.4989 19.7147 27.4985 19.7665 27.5136 19.8149L27.9792 21.2641C27.9942 21.3127 27.9935 21.3649 27.9772 21.4132C27.961 21.4614 27.93 21.5033 27.8886 21.533C27.8472 21.5627 27.7975 21.5786 27.7466 21.5785C27.6957 21.5784 27.6461 21.5623 27.6048 21.5324L26.3744 20.6388C26.3326 20.6087 26.2823 20.5925 26.2308 20.5925C26.1793 20.5925 26.129 20.6087 26.0872 20.6388L24.8608 21.5324C24.8195 21.5623 24.7699 21.5784 24.719 21.5785C24.6681 21.5786 24.6184 21.5627 24.577 21.533C24.5356 21.5033 24.5046 21.4614 24.4884 21.4132C24.4721 21.3649 24.4714 21.3127 24.4864 21.2641L24.9561 19.8176C24.9712 19.7692 24.9707 19.7173 24.9548 19.6692C24.939 19.6211 24.9084 19.5791 24.8675 19.5492L23.6371 18.6556C23.5955 18.6252 23.5645 18.5825 23.5487 18.5335C23.5329 18.4845 23.5329 18.4318 23.5488 18.3828C23.5647 18.3339 23.5957 18.2912 23.6374 18.2609C23.679 18.2306 23.7292 18.2142 23.7806 18.2141H25.2955C25.347 18.2144 25.3972 18.1983 25.439 18.1681C25.4807 18.138 25.5118 18.0954 25.5277 18.0464L25.9973 16.5999C26.0116 16.5488 26.0421 16.5037 26.0843 16.4715C26.1265 16.4393 26.178 16.4218 26.2311 16.4215C26.2842 16.4211 26.3359 16.4381 26.3785 16.4699C26.421 16.5016 26.4521 16.5463 26.467 16.5973Z" fill="white"/>
<path d="M11.4748 18.6542L10.9877 19.0071L10.2443 19.5439C10.2036 19.5739 10.1731 19.6159 10.1573 19.6639C10.1414 19.712 10.1409 19.7638 10.1558 19.8122L10.6294 21.2641C10.643 21.3127 10.6413 21.3642 10.6245 21.4118C10.6077 21.4594 10.5767 21.5007 10.5357 21.53C10.4946 21.5593 10.4455 21.5753 10.3951 21.5757C10.3446 21.5761 10.2953 21.561 10.2537 21.5324L9.02461 20.6374C8.9828 20.6073 8.93257 20.5911 8.88103 20.5911C8.8295 20.5911 8.77927 20.6073 8.73746 20.6374L7.50702 21.5324C7.46546 21.561 7.4161 21.5761 7.36566 21.5757C7.31521 21.5753 7.26612 21.5593 7.22507 21.53C7.18402 21.5007 7.153 21.4594 7.13622 21.4118C7.11945 21.3642 7.11773 21.3127 7.13131 21.2641L7.60228 19.8189C7.61657 19.7705 7.61574 19.7189 7.59992 19.6709C7.5841 19.623 7.55403 19.581 7.51372 19.5506L7.35002 19.4312C7.43724 19.297 7.5258 19.1521 7.61839 19.0112C8.10815 18.2477 8.62743 17.5016 9.17489 16.7811L9.5828 18.0437C9.59868 18.0928 9.62969 18.1356 9.67139 18.166C9.7131 18.1963 9.76335 18.2127 9.81494 18.2128H11.3406C11.3909 18.2155 11.4391 18.2337 11.4787 18.2648C11.5184 18.2958 11.5475 18.3384 11.5621 18.3866C11.5768 18.4348 11.5763 18.4863 11.5606 18.5342C11.545 18.5821 11.515 18.624 11.4748 18.6542Z" fill="white"/>
<path d="M35.1446 28.0551L35.6142 29.5015C35.6303 29.5504 35.6614 29.5929 35.7031 29.623C35.7448 29.6531 35.7949 29.6693 35.8463 29.6693H37.372C37.4235 29.6694 37.4736 29.6857 37.5153 29.716C37.5569 29.7463 37.5879 29.789 37.6038 29.838C37.6197 29.8869 37.6198 29.9397 37.6039 29.9887C37.5881 30.0376 37.5572 30.0804 37.5156 30.1107L36.2851 31.0044C36.244 31.0341 36.2134 31.0761 36.1975 31.1243C36.1816 31.1724 36.1813 31.2244 36.1966 31.2727L36.6662 32.7192C36.6806 32.7679 36.6795 32.82 36.663 32.868C36.6464 32.9161 36.6153 32.9578 36.574 32.9873C36.5326 33.0168 36.4831 33.0327 36.4323 33.0328C36.3815 33.0328 36.3319 33.017 36.2905 32.9876L35.0614 32.0939C35.0196 32.0638 34.9693 32.0476 34.9178 32.0476C34.8663 32.0476 34.816 32.0638 34.7742 32.0939L33.5438 32.9876C33.5024 33.017 33.4528 33.0328 33.402 33.0328C33.3512 33.0327 33.3016 33.0168 33.2603 32.9873C33.2189 32.9578 33.1878 32.9161 33.1713 32.868C33.1548 32.82 33.1537 32.7679 33.1681 32.7192L33.6391 31.2727C33.6537 31.2243 33.6531 31.1726 33.6373 31.1245C33.6214 31.0765 33.5911 31.0345 33.5505 31.0044L32.3201 30.1107C32.2785 30.0804 32.2475 30.0376 32.2317 29.9887C32.2158 29.9397 32.2159 29.8869 32.2318 29.838C32.2477 29.789 32.2787 29.7463 32.3204 29.716C32.362 29.6857 32.4121 29.6694 32.4636 29.6693H33.9839C34.0353 29.6691 34.0853 29.6528 34.127 29.6228C34.1686 29.5927 34.1998 29.5503 34.216 29.5015L34.6857 28.0551C34.7028 28.008 34.734 27.9673 34.7751 27.9386C34.8161 27.9099 34.865 27.8945 34.9151 27.8945C34.9652 27.8945 35.0141 27.9099 35.0552 27.9386C35.0962 27.9673 35.1274 28.008 35.1446 28.0551Z" fill="white"/>
<path d="M26.4669 28.055L26.9365 29.5015C26.9526 29.5503 26.9837 29.5928 27.0254 29.6229C27.0671 29.653 27.1172 29.6692 27.1686 29.6692H28.6889C28.7404 29.6693 28.7906 29.6856 28.8322 29.7159C28.8738 29.7462 28.9048 29.7889 28.9207 29.8379C28.9367 29.8868 28.9367 29.9396 28.9209 29.9886C28.905 30.0376 28.8741 30.0803 28.8325 30.1106L27.6021 31.0043C27.5611 31.0342 27.5306 31.0761 27.5147 31.1243C27.4988 31.1724 27.4984 31.2243 27.5135 31.2726L27.9791 32.7231C27.9941 32.7718 27.9934 32.824 27.9772 32.8722C27.9609 32.9205 27.9299 32.9624 27.8885 32.9921C27.8471 33.0217 27.7975 33.0376 27.7465 33.0375C27.6956 33.0374 27.646 33.0213 27.6047 32.9915L26.3743 32.0979C26.3325 32.0677 26.2823 32.0515 26.2307 32.0515C26.1792 32.0515 26.129 32.0677 26.0871 32.0979L24.8567 32.9915C24.8154 33.0213 24.7658 33.0374 24.7149 33.0375C24.664 33.0376 24.6143 33.0217 24.5729 32.9921C24.5315 32.9624 24.5005 32.9205 24.4843 32.8722C24.468 32.824 24.4673 32.7718 24.4823 32.7231L24.952 31.2767C24.9671 31.2283 24.9666 31.1764 24.9507 31.1283C24.9349 31.0802 24.9043 31.0382 24.8634 31.0083L23.633 30.1147C23.5914 30.0843 23.5605 30.0416 23.5446 29.9926C23.5288 29.9436 23.5288 29.8909 23.5447 29.8419C23.5606 29.7929 23.5916 29.7502 23.6333 29.7199C23.6749 29.6897 23.7251 29.6733 23.7765 29.6732H25.2955C25.3469 29.6732 25.397 29.6571 25.4387 29.6269C25.4804 29.5968 25.5115 29.5543 25.5276 29.5055L25.9972 28.059C26.0114 28.0078 26.0418 27.9627 26.0839 27.9303C26.126 27.898 26.1775 27.8803 26.2305 27.8798C26.2836 27.8794 26.3354 27.8962 26.378 27.9278C26.4207 27.9594 26.4519 28.0041 26.4669 28.055Z" fill="white"/>
<path d="M17.7894 28.0551L18.259 29.5015C18.2753 29.5503 18.3064 29.5927 18.3481 29.6227C18.3897 29.6528 18.4398 29.6691 18.4911 29.6693H20.0114C20.0629 29.6694 20.1131 29.6857 20.1547 29.716C20.1963 29.7463 20.2273 29.789 20.2432 29.8379C20.2592 29.8869 20.2592 29.9397 20.2434 29.9886C20.2275 30.0376 20.1966 30.0804 20.155 30.1107L18.9245 31.0044C18.8839 31.0345 18.8536 31.0765 18.8378 31.1245C18.8219 31.1726 18.8213 31.2243 18.836 31.2727L19.307 32.7192C19.3214 32.7679 19.3203 32.8199 19.3037 32.868C19.2872 32.9161 19.2561 32.9578 19.2148 32.9873C19.1734 33.0168 19.1239 33.0327 19.0731 33.0328C19.0222 33.0328 18.9727 33.017 18.9313 32.9876L17.7008 32.0939C17.6592 32.0639 17.6092 32.0477 17.5579 32.0477C17.5066 32.0477 17.4566 32.0639 17.415 32.0939L16.1846 32.9876C16.1432 33.017 16.0936 33.0328 16.0428 33.0328C15.9919 33.0327 15.9424 33.0168 15.9011 32.9873C15.8597 32.9578 15.8286 32.9161 15.8121 32.868C15.7955 32.8199 15.7944 32.7679 15.8089 32.7192L16.2785 31.2727C16.2938 31.2244 16.2934 31.1724 16.2776 31.1242C16.2617 31.0761 16.231 31.0341 16.1899 31.0044L14.9635 30.1107C14.9225 30.0809 14.8918 30.039 14.8757 29.9909C14.8596 29.9427 14.8588 29.8908 14.8736 29.8423C14.8883 29.7937 14.9178 29.751 14.958 29.72C14.9982 29.689 15.047 29.6712 15.0977 29.6693H16.618C16.6694 29.6693 16.7195 29.6531 16.7612 29.623C16.8029 29.5929 16.834 29.5504 16.8501 29.5015L17.3197 28.0551C17.3343 28.004 17.3651 27.9591 17.4075 27.9272C17.4499 27.8952 17.5015 27.8779 17.5546 27.8779C17.6076 27.8779 17.6593 27.8952 17.7016 27.9272C17.744 27.9591 17.7748 28.004 17.7894 28.0551Z" fill="white"/>
<path d="M9.11307 28.0549L9.5827 29.5014C9.59881 29.5502 9.62992 29.5927 9.6716 29.6228C9.71329 29.653 9.76341 29.6691 9.81484 29.6691H11.3405C11.3912 29.6711 11.44 29.6888 11.4802 29.7198C11.5203 29.7508 11.5498 29.7936 11.5646 29.8421C11.5793 29.8907 11.5786 29.9426 11.5625 29.9907C11.5464 30.0388 11.5157 30.0807 11.4747 30.1106L10.2442 31.0042C10.2031 31.034 10.1725 31.0759 10.1566 31.1241C10.1407 31.1723 10.1404 31.2242 10.1557 31.2726L10.6253 32.719C10.6397 32.7678 10.6386 32.8198 10.6221 32.8678C10.6055 32.9159 10.5744 32.9576 10.5331 32.9871C10.4917 33.0167 10.4422 33.0326 10.3914 33.0326C10.3406 33.0327 10.291 33.0169 10.2496 32.9874L9.02048 32.0938C8.97867 32.0636 8.92844 32.0474 8.87691 32.0474C8.82537 32.0474 8.77514 32.0636 8.73333 32.0938L7.50289 32.9874C7.46148 33.0169 7.41191 33.0327 7.3611 33.0326C7.31028 33.0326 7.26074 33.0167 7.21939 32.9871C7.17804 32.9576 7.14693 32.9159 7.1304 32.8678C7.11387 32.8198 7.11275 32.7678 7.12718 32.719L7.59816 31.2726C7.61284 31.2242 7.61221 31.1724 7.59635 31.1244C7.5805 31.0763 7.5502 31.0344 7.5096 31.0042L6.27916 30.1106C6.23757 30.0802 6.20664 30.0375 6.19079 29.9885C6.17494 29.9395 6.17498 29.8868 6.19091 29.8378C6.20683 29.7888 6.23782 29.7461 6.27946 29.7158C6.32109 29.6856 6.37124 29.6692 6.42273 29.6691H7.94703C7.99841 29.6689 8.04844 29.6527 8.09008 29.6226C8.13173 29.5925 8.16288 29.5501 8.17916 29.5014L8.6488 28.0549C8.6648 28.0059 8.69586 27.9633 8.73755 27.9331C8.77924 27.9028 8.82943 27.8865 8.88093 27.8865C8.93244 27.8865 8.98262 27.9028 9.02432 27.9331C9.06601 27.9633 9.09707 28.0059 9.11307 28.0549Z" fill="white"/>
<path d="M30.8049 10.6517L31.2745 12.0982C31.2906 12.147 31.3217 12.1895 31.3634 12.2196C31.4051 12.2497 31.4552 12.2659 31.5066 12.2659H33.0269C33.0784 12.266 33.1286 12.2823 33.1702 12.3126C33.2118 12.3429 33.2428 12.3856 33.2587 12.4346C33.2747 12.4835 33.2747 12.5363 33.2589 12.5853C33.243 12.6343 33.2121 12.677 33.1705 12.7073L31.9401 13.601C31.8995 13.6312 31.8692 13.6731 31.8533 13.7212C31.8375 13.7692 31.8368 13.8209 31.8515 13.8694L32.3225 15.3158C32.3369 15.3646 32.3358 15.4166 32.3193 15.4646C32.3027 15.5127 32.2716 15.5544 32.2303 15.5839C32.1889 15.6135 32.1394 15.6294 32.0886 15.6294C32.0377 15.6295 31.9882 15.6136 31.9468 15.5842L30.7163 14.6905C30.6747 14.6605 30.6247 14.6444 30.5734 14.6444C30.5221 14.6444 30.4721 14.6605 30.4305 14.6905L29.2001 15.5842C29.1587 15.6136 29.1091 15.6295 29.0583 15.6294C29.0075 15.6294 28.9579 15.6135 28.9166 15.5839C28.8752 15.5544 28.8441 15.5127 28.8276 15.4646C28.8111 15.4166 28.8099 15.3646 28.8244 15.3158L29.294 13.8694C29.3093 13.821 29.309 13.769 29.2931 13.7209C29.2772 13.6727 29.2465 13.6308 29.2054 13.601L27.979 12.7073C27.938 12.6775 27.9073 12.6356 27.8912 12.5875C27.8751 12.5394 27.8743 12.4874 27.8891 12.4389C27.9039 12.3903 27.9334 12.3476 27.9735 12.3166C28.0137 12.2856 28.0625 12.2679 28.1132 12.2659H29.6335C29.685 12.2661 29.7352 12.25 29.7769 12.2199C29.8186 12.1897 29.8497 12.1471 29.8656 12.0982L30.3352 10.6517C30.3498 10.6007 30.3806 10.5558 30.423 10.5238C30.4654 10.4918 30.517 10.4745 30.5701 10.4745C30.6231 10.4745 30.6748 10.4918 30.7171 10.5238C30.7595 10.5558 30.7903 10.6007 30.8049 10.6517Z" fill="white"/>
<path d="M14.4979 13.7243C14.4825 13.7732 14.4825 13.8257 14.4979 13.8746L14.9636 15.3197C14.9777 15.3682 14.9764 15.42 14.9599 15.4677C14.9433 15.5155 14.9124 15.5569 14.8713 15.5864C14.8303 15.6158 14.7811 15.6318 14.7305 15.6321C14.68 15.6324 14.6306 15.617 14.5892 15.5881L13.3587 14.6931C13.3169 14.663 13.2667 14.6467 13.2152 14.6467C13.1636 14.6467 13.1134 14.663 13.0716 14.6931L11.8412 15.5881C11.7997 15.617 11.7503 15.6324 11.6998 15.6321C11.6493 15.6318 11.6001 15.6158 11.559 15.5864C11.5179 15.5569 11.487 15.5155 11.4705 15.4677C11.454 15.42 11.4527 15.3682 11.4668 15.3197L11.9364 13.8746C11.9519 13.8257 11.9519 13.7732 11.9364 13.7243C11.9275 13.6832 11.907 13.6455 11.8774 13.6156C12.5036 12.9715 13.1499 12.353 13.8163 11.7599L13.9236 12.0913C13.9387 12.1418 13.9697 12.1861 14.0121 12.2176C14.0544 12.249 14.1057 12.2659 14.1585 12.2658H15.6787C15.7302 12.2663 15.7801 12.283 15.8215 12.3135C15.863 12.3439 15.8938 12.3866 15.9097 12.4356C15.9255 12.4845 15.9256 12.5371 15.91 12.5861C15.8943 12.6351 15.8636 12.6779 15.8223 12.7086L14.5919 13.6009C14.5478 13.6306 14.5148 13.6739 14.4979 13.7243Z" fill="white"/>
<path d="M7.61177 24.2912C7.60836 24.3247 7.59772 24.357 7.58057 24.386C7.56343 24.4149 7.54019 24.4398 7.51247 24.4589L6.28203 25.3539C6.24142 25.3841 6.21112 25.426 6.19527 25.4741C6.17942 25.5221 6.17879 25.5739 6.19347 25.6223L6.6631 27.0688C6.6781 27.1174 6.67742 27.1696 6.66116 27.2178C6.64491 27.2661 6.61389 27.308 6.5725 27.3377C6.53112 27.3673 6.48145 27.3832 6.43053 27.3831C6.37961 27.383 6.33001 27.3669 6.28874 27.3371L5.05829 26.4448C5.01699 26.4135 4.96657 26.3965 4.91472 26.3965C4.86287 26.3965 4.81245 26.4135 4.77114 26.4448L3.80235 27.1493C4.10918 26.1724 4.45805 25.217 4.84897 24.2831C5.01535 23.8806 5.18979 23.4861 5.37362 23.0916L5.61649 23.8417C5.63231 23.8909 5.66327 23.9339 5.70495 23.9645C5.74663 23.9951 5.79691 24.0118 5.84862 24.0121H7.3689C7.40401 24.0119 7.43875 24.0193 7.47075 24.0338C7.50274 24.0483 7.53123 24.0695 7.55429 24.096C7.57734 24.1225 7.59441 24.1536 7.60433 24.1873C7.61424 24.221 7.61678 24.2564 7.61177 24.2912Z" fill="white"/>
<path d="M30.8048 22.4046L31.2745 23.8511C31.2907 23.8998 31.3219 23.9422 31.3635 23.9723C31.4052 24.0024 31.4552 24.0186 31.5066 24.0188H33.0269C33.0784 24.0189 33.1285 24.0352 33.1701 24.0655C33.2118 24.0958 33.2428 24.1385 33.2587 24.1875C33.2746 24.2364 33.2747 24.2892 33.2588 24.3382C33.243 24.3872 33.212 24.4299 33.1705 24.4602L31.94 25.3539C31.8994 25.3841 31.8691 25.426 31.8533 25.4741C31.8374 25.5221 31.8368 25.5739 31.8514 25.6223L32.3224 27.0687C32.3369 27.1175 32.3357 27.1695 32.3192 27.2175C32.3027 27.2656 32.2716 27.3073 32.2302 27.3368C32.1889 27.3664 32.1393 27.3823 32.0885 27.3823C32.0377 27.3824 31.9881 27.3666 31.9467 27.3371L30.7163 26.4435C30.6747 26.4134 30.6247 26.3973 30.5734 26.3973C30.5221 26.3973 30.4721 26.4134 30.4305 26.4435L29.2 27.3371C29.1586 27.3666 29.109 27.3824 29.0582 27.3823C29.0074 27.3823 28.9579 27.3664 28.9165 27.3368C28.8752 27.3073 28.8441 27.2656 28.8275 27.2175C28.811 27.1695 28.8099 27.1175 28.8243 27.0687L29.2939 25.6223C29.3092 25.5739 29.3089 25.5219 29.293 25.4738C29.2771 25.4256 29.2465 25.3837 29.2054 25.3539L27.979 24.4602C27.9374 24.4299 27.9065 24.3872 27.8906 24.3382C27.8748 24.2892 27.8748 24.2364 27.8907 24.1875C27.9066 24.1385 27.9376 24.0958 27.9793 24.0655C28.0209 24.0352 28.0711 24.0189 28.1225 24.0188H29.6428C29.6942 24.0188 29.7444 24.0026 29.7861 23.9725C29.8277 23.9424 29.8588 23.8999 29.875 23.8511L30.3446 22.4046C30.3615 22.3571 30.3927 22.3159 30.4339 22.2868C30.4751 22.2577 30.5243 22.2421 30.5747 22.2421C30.6251 22.2421 30.6744 22.2577 30.7156 22.2868C30.7568 22.3159 30.7879 22.3571 30.8048 22.4046Z" fill="white"/>
<path d="M22.1289 22.4046L22.5985 23.8511C22.6146 23.8999 22.6458 23.9424 22.6874 23.9726C22.7291 24.0027 22.7793 24.0189 22.8307 24.0188H24.3563C24.4078 24.0189 24.458 24.0353 24.4996 24.0656C24.5412 24.0959 24.5722 24.1385 24.5881 24.1875C24.6041 24.2365 24.6041 24.2892 24.5883 24.3382C24.5724 24.3872 24.5415 24.4299 24.4999 24.4603L23.2694 25.3539C23.2284 25.3837 23.1977 25.4256 23.1818 25.4738C23.1659 25.522 23.1656 25.5739 23.1809 25.6223L23.6505 27.0688C23.665 27.1175 23.6638 27.1695 23.6473 27.2176C23.6308 27.2656 23.5997 27.3073 23.5583 27.3368C23.517 27.3664 23.4674 27.3823 23.4166 27.3823C23.3658 27.3824 23.3162 27.3666 23.2748 27.3371L22.0457 26.4435C22.0039 26.4133 21.9537 26.3971 21.9021 26.3971C21.8506 26.3971 21.8004 26.4133 21.7586 26.4435L20.5281 27.3371C20.4867 27.3666 20.4371 27.3824 20.3863 27.3823C20.3355 27.3823 20.286 27.3664 20.2446 27.3368C20.2033 27.3073 20.1722 27.2656 20.1556 27.2176C20.1391 27.1695 20.138 27.1175 20.1524 27.0688L20.6234 25.6223C20.6381 25.5739 20.6374 25.5221 20.6216 25.4741C20.6057 25.4261 20.5754 25.3841 20.5348 25.3539L19.3044 24.4603C19.2628 24.4299 19.2319 24.3872 19.216 24.3382C19.2002 24.2892 19.2002 24.2365 19.2161 24.1875C19.2321 24.1385 19.2631 24.0959 19.3047 24.0656C19.3463 24.0353 19.3965 24.0189 19.448 24.0188H20.9682C21.0196 24.0187 21.0696 24.0024 21.1113 23.9723C21.1529 23.9422 21.1841 23.8998 21.2004 23.8511L21.67 22.4046C21.6872 22.3575 21.7184 22.3169 21.7594 22.2882C21.8005 22.2594 21.8494 22.244 21.8995 22.244C21.9496 22.244 21.9984 22.2594 22.0395 22.2882C22.0805 22.3169 22.1118 22.3575 22.1289 22.4046Z" fill="white"/>
<path d="M6.28187 36.8787C6.24096 36.9086 6.21042 36.9506 6.19454 36.9987C6.17866 37.0468 6.17823 37.0987 6.19331 37.1471L6.66295 38.5949C6.67794 38.6436 6.67727 38.6957 6.66101 38.744C6.64475 38.7922 6.61374 38.8342 6.57235 38.8638C6.53096 38.8935 6.4813 38.9094 6.43038 38.9093C6.37945 38.9092 6.32985 38.8931 6.28858 38.8633L5.05814 37.971C5.01657 37.9402 4.96625 37.9237 4.91456 37.9237C4.86288 37.9237 4.81255 37.9402 4.77099 37.971L3.54189 38.8686C3.50064 38.899 3.45085 38.9156 3.39964 38.9159C3.34842 38.9163 3.2984 38.9005 3.25672 38.8707C3.21504 38.8409 3.18384 38.7987 3.16758 38.7502C3.15132 38.7016 3.15083 38.6491 3.16618 38.6003L3.63581 37.1525C3.65131 37.1041 3.65109 37.0521 3.63518 37.0039C3.61927 36.9557 3.58849 36.9137 3.54725 36.8841L2.31681 35.9837C2.29102 35.9654 2.26913 35.9421 2.2524 35.9153C2.2524 35.8227 2.26045 35.7301 2.26582 35.6389C2.28814 35.6085 2.3175 35.5839 2.35138 35.5673C2.38527 35.5507 2.42267 35.5426 2.46038 35.5436H3.98066C4.03237 35.5433 4.08265 35.5266 4.12433 35.496C4.16601 35.4654 4.19697 35.4224 4.21279 35.3732L4.38052 34.8579L4.68243 33.9281C4.69842 33.8791 4.72949 33.8365 4.77118 33.8062C4.81287 33.776 4.86306 33.7597 4.91456 33.7597C4.96607 33.7597 5.01625 33.776 5.05794 33.8062C5.09964 33.8365 5.1307 33.8791 5.1467 33.9281L5.44861 34.8579L5.61633 35.3732C5.63215 35.4224 5.66311 35.4654 5.7048 35.496C5.74648 35.5266 5.79676 35.5433 5.84847 35.5436H7.36874C7.4203 35.5432 7.47065 35.5592 7.5125 35.5894C7.55435 35.6195 7.58553 35.6621 7.60152 35.7112C7.61751 35.7602 7.61749 35.813 7.60145 35.862C7.58541 35.911 7.55419 35.9536 7.51232 35.9837L6.28187 36.8787Z" fill="white"/>
<path d="M30.8048 33.9281L31.2745 35.3746C31.2906 35.4234 31.3217 35.4659 31.3634 35.496C31.405 35.5261 31.4552 35.5423 31.5066 35.5423H33.0269C33.0784 35.5424 33.1285 35.5587 33.1701 35.589C33.2118 35.6193 33.2428 35.662 33.2587 35.711C33.2746 35.7599 33.2747 35.8127 33.2588 35.8617C33.243 35.9107 33.212 35.9534 33.1705 35.9837L31.94 36.8774C31.8997 36.9078 31.8696 36.9498 31.8538 36.9977C31.838 37.0457 31.8372 37.0973 31.8514 37.1458L32.3224 38.5909C32.3369 38.6396 32.3357 38.6916 32.3192 38.7397C32.3027 38.7877 32.2716 38.8294 32.2302 38.859C32.1889 38.8885 32.1393 38.9044 32.0885 38.9045C32.0377 38.9045 31.9881 38.8887 31.9467 38.8593L30.7163 37.9656C30.6747 37.9356 30.6247 37.9194 30.5734 37.9194C30.5221 37.9194 30.4721 37.9356 30.4305 37.9656L29.2 38.8593C29.1586 38.8887 29.109 38.9045 29.0582 38.9045C29.0074 38.9044 28.9579 38.8885 28.9165 38.859C28.8752 38.8294 28.8441 38.7877 28.8275 38.7397C28.811 38.6916 28.8099 38.6396 28.8243 38.5909L29.2939 37.1458C29.3088 37.0974 29.3083 37.0455 29.2924 36.9975C29.2766 36.9494 29.2461 36.9074 29.2054 36.8774L27.979 35.9837C27.9374 35.9534 27.9065 35.9107 27.8906 35.8617C27.8748 35.8127 27.8748 35.7599 27.8907 35.711C27.9066 35.662 27.9376 35.6193 27.9793 35.589C28.0209 35.5587 28.0711 35.5424 28.1225 35.5423H29.6428C29.6943 35.5425 29.7445 35.5264 29.7862 35.4963C29.828 35.4661 29.859 35.4235 29.875 35.3746L30.3446 33.9281C30.3615 33.8806 30.3927 33.8394 30.4339 33.8103C30.4751 33.7812 30.5243 33.7656 30.5747 33.7656C30.6251 33.7656 30.6744 33.7812 30.7156 33.8103C30.7568 33.8394 30.7879 33.8806 30.8048 33.9281Z" fill="white"/>
<path d="M22.1288 33.928L22.5984 35.3745C22.6144 35.4234 22.6454 35.466 22.6871 35.4962C22.7289 35.5263 22.7791 35.5425 22.8306 35.5422H24.3562C24.4069 35.5442 24.4557 35.5619 24.4959 35.5929C24.536 35.6239 24.5656 35.6667 24.5803 35.7152C24.5951 35.7638 24.5943 35.8157 24.5782 35.8638C24.5621 35.9119 24.5314 35.9538 24.4904 35.9837L23.2599 36.8773C23.2192 36.9073 23.1888 36.9493 23.1729 36.9974C23.157 37.0455 23.1565 37.0973 23.1714 37.1457L23.641 38.5908C23.6555 38.6395 23.6543 38.6915 23.6378 38.7396C23.6213 38.7877 23.5902 38.8294 23.5488 38.8589C23.5075 38.8884 23.4579 38.9043 23.4071 38.9044C23.3563 38.9044 23.3067 38.8886 23.2653 38.8592L22.0362 37.9655C21.9944 37.9354 21.9442 37.9192 21.8926 37.9192C21.8411 37.9192 21.7909 37.9354 21.7491 37.9655L20.5186 38.8592C20.4772 38.8886 20.4276 38.9044 20.3768 38.9044C20.326 38.9043 20.2765 38.8884 20.2351 38.8589C20.1938 38.8294 20.1627 38.7877 20.1461 38.7396C20.1296 38.6915 20.1285 38.6395 20.1429 38.5908L20.6139 37.1457C20.6282 37.0972 20.6273 37.0456 20.6115 36.9977C20.5957 36.9497 20.5656 36.9077 20.5253 36.8773L19.2949 35.9837C19.2533 35.9533 19.2224 35.9106 19.2065 35.8616C19.1907 35.8126 19.1907 35.7598 19.2066 35.7109C19.2226 35.6619 19.2535 35.6192 19.2952 35.5889C19.3368 35.5587 19.387 35.5423 19.4385 35.5422H20.9587C21.0102 35.5422 21.0603 35.5261 21.102 35.4959C21.1436 35.4658 21.1748 35.4233 21.1909 35.3745L21.6605 33.928C21.6755 33.8775 21.7063 33.8332 21.7485 33.8017C21.7907 33.7702 21.842 33.7532 21.8946 33.7532C21.9473 33.7532 21.9986 33.7702 22.0408 33.8017C22.0829 33.8332 22.1138 33.8775 22.1288 33.928Z" fill="white"/>
<path d="M13.4511 33.9281L13.9208 35.3746C13.937 35.4244 13.9689 35.4677 14.0117 35.4979C14.0545 35.5281 14.1059 35.5437 14.1583 35.5423H15.6786C15.7301 35.5424 15.7802 35.5588 15.8218 35.5891C15.8635 35.6193 15.8945 35.662 15.9104 35.711C15.9263 35.76 15.9264 35.8127 15.9105 35.8617C15.8947 35.9107 15.8637 35.9534 15.8221 35.9838L14.5917 36.8774C14.5511 36.9076 14.5208 36.9495 14.5049 36.9976C14.4891 37.0456 14.4885 37.0974 14.5031 37.1458L14.9634 38.5963C14.9784 38.6449 14.9777 38.6971 14.9614 38.7453C14.9452 38.7936 14.9142 38.8355 14.8728 38.8652C14.8314 38.8949 14.7817 38.9108 14.7308 38.9107C14.6799 38.9106 14.6303 38.8945 14.589 38.8646L13.3586 37.971C13.3168 37.9409 13.2665 37.9246 13.215 37.9246C13.1635 37.9246 13.1132 37.9409 13.0714 37.971L11.841 38.8646C11.7997 38.8945 11.7501 38.9106 11.6992 38.9107C11.6483 38.9108 11.5986 38.8949 11.5572 38.8652C11.5158 38.8355 11.4848 38.7936 11.4685 38.7453C11.4523 38.6971 11.4516 38.6449 11.4666 38.5963L11.9362 37.1511C11.9509 37.1027 11.9503 37.051 11.9344 37.0029C11.9186 36.9549 11.8883 36.9129 11.8477 36.8828L10.6172 35.9891C10.5756 35.9588 10.5447 35.916 10.5289 35.8671C10.513 35.8181 10.5131 35.7653 10.529 35.7164C10.5449 35.6674 10.5759 35.6247 10.6175 35.5944C10.6592 35.5641 10.7093 35.5478 10.7608 35.5477H12.2797C12.3312 35.5479 12.3814 35.5318 12.4232 35.5017C12.4649 35.4715 12.496 35.4289 12.5119 35.38L12.9815 33.9335C12.9955 33.8823 13.0258 33.837 13.0678 33.8046C13.1098 33.7721 13.1612 33.7542 13.2143 33.7536C13.2674 33.753 13.3192 33.7697 13.3619 33.8012C13.4047 33.8327 13.436 33.8772 13.4511 33.9281Z" fill="white"/>
<path d="M40.7265 3.39906C40.1898 3.46212 39.6531 3.54129 39.1163 3.62985C35.5485 4.23085 32.0992 5.39676 28.8984 7.08368C28.783 7.14272 28.669 7.20579 28.5549 7.26617C27.8715 7.63561 27.2032 8.02698 26.5502 8.44026H18.2457C18.8997 8.02698 19.5679 7.63561 20.2504 7.26617C25.0846 4.64998 30.4791 3.24001 35.9751 3.15619H37.1586C37.8161 3.16558 38.4682 3.19644 39.1163 3.24341C39.6531 3.28277 40.1898 3.33465 40.7265 3.39906Z" fill="#DB1B1B"/>
<path d="M26.5499 8.44024C25.8683 8.86783 25.2041 9.32047 24.5573 9.79816C24.4057 9.90819 24.2554 10.0209 24.1052 10.135C23.5241 10.5778 22.9592 11.0353 22.4091 11.513C22.3111 11.5948 22.2145 11.6794 22.1179 11.7653C21.5034 12.3087 20.9103 12.8763 20.336 13.4613L20.5292 13.5955C20.5712 13.626 20.6023 13.6693 20.6178 13.7189H11.7752C11.8074 13.6841 11.841 13.6505 11.8745 13.6156C12.5007 12.9716 13.147 12.353 13.8134 11.7599C14.4548 11.1936 15.1172 10.6502 15.8007 10.1296C16.5896 9.53114 17.4108 8.96355 18.2454 8.43488L26.5499 8.44024Z" fill="white"/>
<path d="M20.0799 13.7243C19.2406 14.5994 18.4478 15.518 17.7049 16.4764L17.4754 16.7769C17.3506 16.942 17.2272 17.107 17.1051 17.2747L16.8555 18.0436C16.8396 18.0927 16.8086 18.1355 16.7669 18.1659C16.7252 18.1962 16.675 18.2126 16.6234 18.2127H16.4395C16.2597 18.481 16.0853 18.7414 15.9135 19.0084H7.61443C8.10419 18.2449 8.62347 17.4988 9.17093 16.7783C9.97902 15.7106 10.8486 14.6908 11.7754 13.7243H20.0799Z" fill="#DB1B1B"/>
<path d="M15.9191 19.007L15.7715 19.2418L15.6547 19.4269C14.9221 20.61 14.2621 21.8364 13.6782 23.0995C13.4944 23.4926 13.32 23.8871 13.1536 24.2897H4.84909C5.01548 23.8871 5.18991 23.4926 5.37374 23.0982C5.95758 21.8351 6.61763 20.6086 7.35023 19.4256C7.43745 19.2914 7.52601 19.1465 7.6186 19.0056L15.9191 19.007Z" fill="white"/>
<path d="M13.1533 24.2911C12.7624 25.225 12.4136 26.1795 12.1067 27.1546C11.8563 27.948 11.6326 28.7531 11.4358 29.5698H3.1367C3.32814 28.7513 3.55177 27.9462 3.80761 27.1546C4.11444 26.1777 4.46331 25.2224 4.85423 24.2885L13.1533 24.2911Z" fill="#DB1B1B"/>
<path d="M11.4748 30.1106L11.2856 30.2448C10.957 31.7645 10.7329 33.305 10.6147 34.8553H2.31691C2.45138 33.0752 2.72551 31.3084 3.13676 29.5712H11.4413C11.4332 29.6075 11.4238 29.645 11.4158 29.6799C11.4582 29.6948 11.4957 29.7211 11.5241 29.7559C11.5526 29.7907 11.5709 29.8327 11.577 29.8772C11.5831 29.9218 11.5768 29.9671 11.5587 30.0083C11.5407 30.0495 11.5117 30.0849 11.4748 30.1106Z" fill="white"/>
<path d="M10.5207 37.4999C10.5207 38.3882 10.5543 39.2689 10.6214 40.142H2.31688C2.24979 39.2698 2.21625 38.3891 2.21625 37.4999V35.7891C2.21638 35.8337 2.22893 35.8774 2.25248 35.9153C2.25248 35.8227 2.26053 35.7301 2.26589 35.6388C2.27931 35.3772 2.29676 35.1182 2.31688 34.8579H10.6214C10.6012 35.1182 10.5838 35.3772 10.5704 35.6388C10.5704 35.7301 10.561 35.8227 10.557 35.9153C10.5448 35.8967 10.5357 35.8763 10.5301 35.8549C10.5301 35.8428 10.5301 35.8321 10.5234 35.8213C10.5227 35.8106 10.5227 35.7999 10.5234 35.7891L10.5207 37.4999Z" fill="#DB1B1B"/>
<path d="M39.1161 3.24341V3.62985C35.5482 4.23085 32.099 5.39676 28.8982 7.08368C28.7828 7.14272 28.6687 7.20579 28.5547 7.26617C27.8712 7.63562 27.203 8.02698 26.55 8.44026C25.8683 8.86785 25.2041 9.32049 24.5574 9.79818C24.4058 9.90821 24.2555 10.0209 24.1052 10.135C23.5242 10.5778 22.9593 11.0353 22.4091 11.513C22.3112 11.5949 22.2146 11.6794 22.118 11.7653C21.5034 12.3087 20.9103 12.8763 20.336 13.4613L20.5293 13.5955C20.5713 13.6261 20.6023 13.6694 20.6178 13.719H20.0811C19.2418 14.5941 18.449 15.5127 17.7061 16.471L17.4766 16.7716C17.3518 16.9366 17.2284 17.1017 17.1063 17.2694L16.8554 18.0436C16.8395 18.0927 16.8085 18.1355 16.7668 18.1659C16.7251 18.1963 16.6748 18.2127 16.6232 18.2127H16.4394C16.2596 18.4811 16.0852 18.7414 15.9134 19.0084L15.7658 19.2432L15.6491 19.4284C14.9165 20.6114 14.2564 21.8379 13.6726 23.1009C13.4888 23.4941 13.3143 23.8886 13.1479 24.2911C12.7606 25.225 12.4135 26.1795 12.1067 27.1546C11.8562 27.948 11.6326 28.7531 11.4358 29.5698C11.4277 29.6061 11.4183 29.6436 11.4103 29.6785C11.4524 29.6932 11.4896 29.7192 11.518 29.7535C11.5464 29.7879 11.5648 29.8294 11.5713 29.8735C11.5778 29.9176 11.5721 29.9626 11.5548 30.0037C11.5376 30.0448 11.5094 30.0803 11.4733 30.1066L11.2842 30.2407C10.9556 31.7605 10.7314 33.3009 10.6132 34.8512C10.5931 35.1115 10.5757 35.3705 10.5623 35.6322C10.5623 35.7234 10.5529 35.816 10.5488 35.9086C10.5366 35.89 10.5276 35.8696 10.522 35.8482C10.522 35.8361 10.522 35.8254 10.5153 35.8146C10.5146 35.8039 10.5146 35.7932 10.5153 35.7824V37.5C10.5153 38.3882 10.5488 39.2689 10.6159 40.142H2.3168C2.24971 39.2698 2.21616 38.3891 2.21616 37.5V35.7891C2.2163 35.8337 2.22884 35.8774 2.25239 35.9153C2.25239 35.8227 2.26044 35.7301 2.26581 35.6389C2.27923 35.3772 2.29667 35.1182 2.3168 34.8579C2.45127 33.0778 2.7254 31.311 3.13665 29.5739C3.32808 28.7553 3.55172 27.9503 3.80756 27.1586C4.11438 26.1817 4.46326 25.2264 4.85417 24.2925C5.02056 23.8899 5.19499 23.4954 5.37882 23.1009C5.96266 21.8379 6.62271 20.6114 7.35532 19.4284C7.44253 19.2942 7.53109 19.1493 7.62368 19.0084C8.11344 18.2449 8.63272 17.4989 9.18018 16.7783C9.98524 15.7108 10.8517 14.6911 11.7753 13.7243C11.8075 13.6894 11.841 13.6559 11.8745 13.621C12.5007 12.9769 13.147 12.3584 13.8135 11.7653C14.4549 11.199 15.1173 10.6556 15.8007 10.135C16.5897 9.53652 17.4109 8.96893 18.2455 8.44026C18.8994 8.02698 19.5676 7.63562 20.2502 7.26617C25.0843 4.64998 30.4788 3.24001 35.9749 3.15619H37.1584C37.8159 3.16558 38.468 3.19644 39.1161 3.24341Z" fill="#3E436D"/>
<path d="M18.8307 8.4402C18.8185 8.48409 18.8185 8.53049 18.8307 8.57438L19.3017 10.0182C19.3161 10.0669 19.315 10.1189 19.2985 10.167C19.282 10.215 19.2509 10.2567 19.2095 10.2863C19.1682 10.3158 19.1186 10.3317 19.0678 10.3317C19.017 10.3318 18.9674 10.316 18.926 10.2865L17.6956 9.39423C17.654 9.36421 17.604 9.34805 17.5527 9.34805C17.5014 9.34805 17.4514 9.36421 17.4098 9.39423L16.1793 10.2865C16.146 10.3112 16.1069 10.3269 16.0657 10.3321C16.0246 10.3374 15.9828 10.332 15.9443 10.3166C15.9059 10.3011 15.872 10.276 15.8459 10.2438C15.8199 10.2115 15.8025 10.1731 15.7955 10.1322C16.5845 9.53378 17.4057 8.96619 18.2403 8.43752C18.8942 8.02424 19.5625 7.63287 20.245 7.26343C20.2296 7.31778 20.196 7.36517 20.1497 7.39761L18.9193 8.29126C18.8728 8.32866 18.8414 8.38153 18.8307 8.4402Z" fill="#DBDBDB"/>
<path d="M17.7048 16.4764L17.4753 16.777C17.3505 16.942 17.2271 17.1071 17.105 17.2748L17.325 16.6039C17.3361 16.5661 17.3561 16.5316 17.3834 16.5033C17.4107 16.475 17.4444 16.4536 17.4817 16.4411C17.5189 16.4286 17.5587 16.4253 17.5975 16.4314C17.6364 16.4376 17.6732 16.453 17.7048 16.4764Z" fill="#DBDBDB"/>
<path d="M11.4749 18.6541L10.9879 19.007L10.2445 19.5437C10.2037 19.5737 10.1733 19.6157 10.1575 19.6638C10.1416 19.7118 10.1411 19.7636 10.1559 19.812L10.6296 21.2639C10.6432 21.3125 10.6415 21.3641 10.6247 21.4116C10.6079 21.4592 10.5769 21.5005 10.5358 21.5298C10.4948 21.5591 10.4457 21.5751 10.3952 21.5755C10.3448 21.576 10.2954 21.5609 10.2539 21.5322L9.02478 20.6373C8.98298 20.6071 8.93274 20.5909 8.88121 20.5909C8.82967 20.5909 8.77944 20.6071 8.73763 20.6373L7.50719 21.5322C7.46563 21.5609 7.41628 21.576 7.36583 21.5755C7.31539 21.5751 7.2663 21.5591 7.22525 21.5298C7.1842 21.5005 7.15317 21.4592 7.1364 21.4116C7.11962 21.3641 7.1179 21.3125 7.13148 21.2639L7.60246 19.8188C7.61674 19.7703 7.61592 19.7187 7.6001 19.6707C7.58427 19.6228 7.5542 19.5808 7.5139 19.5504L7.3502 19.431C7.43742 19.2968 7.52598 19.1519 7.61856 19.011C8.10832 18.2475 8.62761 17.5014 9.17507 16.7809L9.58298 18.0435C9.59885 18.0926 9.62987 18.1354 9.67157 18.1658C9.71327 18.1962 9.76352 18.2126 9.81511 18.2126H11.3408C11.3911 18.2153 11.4393 18.2335 11.4789 18.2646C11.5186 18.2957 11.5477 18.3382 11.5623 18.3864C11.577 18.4346 11.5764 18.4861 11.5608 18.534C11.5452 18.5819 11.5152 18.6238 11.4749 18.6541Z" fill="#DBDBDB"/>
<path d="M11.4749 30.1105L11.2857 30.2447L10.2444 31.0028C10.2031 31.0323 10.1721 31.0742 10.1562 31.1225C10.1403 31.1707 10.1402 31.2228 10.1559 31.2712L10.6255 32.7163C10.64 32.765 10.6388 32.817 10.6223 32.8651C10.6058 32.9131 10.5747 32.9548 10.5333 32.9844C10.492 33.0139 10.4424 33.0298 10.3916 33.0299C10.3408 33.0299 10.2912 33.0141 10.2498 32.9847L9.02071 32.091C8.9789 32.0609 8.92867 32.0447 8.87714 32.0447C8.8256 32.0447 8.77537 32.0609 8.73356 32.091L7.50312 32.9847C7.46171 33.0141 7.41214 33.0299 7.36133 33.0299C7.31051 33.0298 7.26097 33.0139 7.21962 32.9844C7.17827 32.9548 7.14716 32.9131 7.13063 32.8651C7.1141 32.817 7.11298 32.765 7.12741 32.7163L7.59839 31.2712C7.61347 31.2228 7.61304 31.1709 7.59716 31.1228C7.58128 31.0747 7.55074 31.0327 7.50983 31.0028L6.27938 30.1078C6.2378 30.0775 6.20687 30.0347 6.19102 29.9857C6.17517 29.9367 6.17521 29.884 6.19113 29.835C6.20706 29.7861 6.23805 29.7434 6.27969 29.7131C6.32132 29.6828 6.37147 29.6664 6.42296 29.6664H7.94726C7.98461 29.6663 8.02145 29.6577 8.05494 29.6412C8.08844 29.6247 8.1177 29.6007 8.14048 29.5711C8.15711 29.5486 8.17023 29.5237 8.17939 29.4973L8.64903 28.0522C8.66502 28.0032 8.69609 27.9606 8.73778 27.9303C8.77947 27.9001 8.82966 27.8838 8.88116 27.8838C8.93267 27.8838 8.98285 27.9001 9.02454 27.9303C9.06624 27.9606 9.0973 28.0032 9.1133 28.0522L9.58293 29.4973C9.59209 29.5237 9.60521 29.5486 9.62184 29.5711C9.64462 29.6007 9.67388 29.6247 9.70738 29.6412C9.74088 29.6577 9.77772 29.6663 9.81507 29.6664H11.3407C11.3681 29.6665 11.3953 29.671 11.4212 29.6798C11.4633 29.6952 11.5003 29.722 11.5282 29.7571C11.5561 29.7922 11.5737 29.8343 11.5793 29.8788C11.5848 29.9233 11.578 29.9684 11.5596 30.0093C11.5412 30.0502 11.5119 30.0852 11.4749 30.1105Z" fill="#DBDBDB"/>
<path d="M14.4979 13.7243C14.4825 13.7732 14.4825 13.8257 14.4979 13.8746L14.9635 15.3197C14.9776 15.3682 14.9763 15.42 14.9598 15.4677C14.9433 15.5155 14.9124 15.5569 14.8713 15.5864C14.8302 15.6158 14.781 15.6318 14.7305 15.6321C14.68 15.6324 14.6306 15.617 14.5892 15.5881L13.3587 14.6931C13.3169 14.663 13.2667 14.6467 13.2151 14.6467C13.1636 14.6467 13.1134 14.663 13.0716 14.6931L11.8411 15.5881C11.7997 15.617 11.7503 15.6324 11.6998 15.6321C11.6492 15.6318 11.6 15.6158 11.559 15.5864C11.5179 15.5569 11.487 15.5155 11.4705 15.4677C11.4539 15.42 11.4526 15.3682 11.4668 15.3197L11.9364 13.8746C11.9518 13.8257 11.9518 13.7732 11.9364 13.7243C11.9274 13.6832 11.907 13.6455 11.8773 13.6156C12.5035 12.9715 13.1498 12.353 13.8163 11.7599L13.9236 12.0913C13.9387 12.1418 13.9697 12.1861 14.012 12.2176C14.0543 12.249 14.1057 12.2659 14.1584 12.2658H15.6787C15.7301 12.2663 15.7801 12.283 15.8215 12.3135C15.863 12.3439 15.8938 12.3866 15.9096 12.4356C15.9255 12.4845 15.9256 12.5371 15.9099 12.5861C15.8943 12.6351 15.8636 12.6779 15.8223 12.7086L14.5918 13.6009C14.5478 13.6306 14.5148 13.6739 14.4979 13.7243Z" fill="#DBDBDB"/>
<path d="M7.61173 24.2912C7.60833 24.3247 7.59769 24.357 7.58054 24.386C7.5634 24.4149 7.54016 24.4398 7.51244 24.4589L6.282 25.3539C6.24139 25.3841 6.21109 25.426 6.19524 25.4741C6.17939 25.5221 6.17876 25.5739 6.19344 25.6223L6.66307 27.0688C6.67807 27.1174 6.67739 27.1696 6.66113 27.2178C6.64488 27.2661 6.61386 27.308 6.57247 27.3377C6.53109 27.3673 6.48142 27.3832 6.4305 27.3831C6.37958 27.383 6.32998 27.3669 6.28871 27.3371L5.05826 26.4448C5.01696 26.4135 4.96654 26.3965 4.91469 26.3965C4.86284 26.3965 4.81241 26.4135 4.77111 26.4448L3.80232 27.1493C4.10915 26.1724 4.45802 25.217 4.84894 24.2831C5.01532 23.8806 5.18976 23.4861 5.37359 23.0916L5.61646 23.8417C5.63228 23.8909 5.66324 23.9339 5.70492 23.9645C5.7466 23.9951 5.79688 24.0118 5.84859 24.0121H7.36887C7.40398 24.0119 7.43872 24.0193 7.47072 24.0338C7.50271 24.0483 7.5312 24.0695 7.55426 24.096C7.57731 24.1225 7.59438 24.1536 7.60429 24.1873C7.61421 24.221 7.61675 24.2564 7.61173 24.2912Z" fill="#DBDBDB"/>
<path d="M6.28184 36.8787C6.24093 36.9086 6.21039 36.9506 6.19451 36.9987C6.17863 37.0468 6.1782 37.0987 6.19328 37.1471L6.66292 38.5949C6.67791 38.6436 6.67724 38.6957 6.66098 38.744C6.64472 38.7922 6.61371 38.8342 6.57232 38.8638C6.53093 38.8935 6.48127 38.9094 6.43035 38.9093C6.37942 38.9092 6.32982 38.8931 6.28855 38.8633L5.05811 37.971C5.01654 37.9402 4.96622 37.9237 4.91453 37.9237C4.86285 37.9237 4.81252 37.9402 4.77096 37.971L3.54186 38.8686C3.50061 38.899 3.45082 38.9156 3.39961 38.9159C3.34839 38.9163 3.29837 38.9005 3.25669 38.8707C3.21501 38.8409 3.18381 38.7987 3.16755 38.7502C3.15129 38.7016 3.1508 38.6491 3.16615 38.6003L3.63578 37.1525C3.65128 37.1041 3.65106 37.0521 3.63515 37.0039C3.61924 36.9557 3.58846 36.9137 3.54722 36.8841L2.31678 35.9837C2.29099 35.9654 2.2691 35.9421 2.25237 35.9153C2.25237 35.8227 2.26042 35.7301 2.26579 35.6389C2.28811 35.6085 2.31747 35.5839 2.35135 35.5673C2.38524 35.5507 2.42264 35.5426 2.46035 35.5436H3.98063C4.03234 35.5433 4.08262 35.5266 4.1243 35.496C4.16598 35.4654 4.19694 35.4224 4.21276 35.3732L4.38049 34.8579L4.6824 33.9281C4.69839 33.8791 4.72946 33.8365 4.77115 33.8062C4.81284 33.776 4.86303 33.7597 4.91453 33.7597C4.96604 33.7597 5.01622 33.776 5.05791 33.8062C5.09961 33.8365 5.13067 33.8791 5.14667 33.9281L5.44857 34.8579L5.6163 35.3732C5.63212 35.4224 5.66308 35.4654 5.70477 35.496C5.74645 35.5266 5.79673 35.5433 5.84844 35.5436H7.36871C7.42027 35.5432 7.47062 35.5592 7.51247 35.5894C7.55432 35.6195 7.5855 35.6621 7.60149 35.7112C7.61748 35.7602 7.61746 35.813 7.60142 35.862C7.58538 35.911 7.55416 35.9536 7.51229 35.9837L6.28184 36.8787Z" fill="#DBDBDB"/>
<path d="M10.5209 35.7894C10.5211 35.7352 10.5385 35.6825 10.5706 35.6389C10.5706 35.7303 10.5612 35.823 10.5572 35.9157C10.5449 35.8972 10.5359 35.8767 10.5303 35.8553C10.5303 35.8432 10.5303 35.8324 10.5236 35.8217C10.5219 35.811 10.521 35.8002 10.5209 35.7894Z" fill="white"/>
<path d="M13.4513 22.4045L13.921 23.8509C13.9373 23.9007 13.9693 23.9438 14.012 23.974C14.0548 24.0042 14.1061 24.0199 14.1585 24.0187H15.6787C15.7302 24.0188 15.7804 24.0351 15.822 24.0654C15.8636 24.0957 15.8946 24.1384 15.9106 24.1873C15.9265 24.2363 15.9265 24.2891 15.9107 24.338C15.8948 24.387 15.8639 24.4298 15.8223 24.4601L14.5919 25.3538C14.551 25.3837 14.5204 25.4256 14.5045 25.4737C14.4887 25.5219 14.4882 25.5738 14.5033 25.6221L14.9635 27.0726C14.9785 27.1213 14.9779 27.1734 14.9616 27.2217C14.9454 27.27 14.9143 27.3119 14.873 27.3416C14.8316 27.3712 14.7819 27.3871 14.731 27.387C14.6801 27.3869 14.6305 27.3708 14.5892 27.341L13.3587 26.4474C13.3169 26.4172 13.2667 26.401 13.2152 26.401C13.1636 26.401 13.1134 26.4172 13.0716 26.4474L11.8411 27.341C11.7999 27.3708 11.7503 27.3869 11.6994 27.387C11.6484 27.3871 11.5988 27.3712 11.5574 27.3416C11.516 27.3119 11.485 27.27 11.4687 27.2217C11.4525 27.1734 11.4518 27.1213 11.4668 27.0726L11.9364 25.6262C11.9515 25.5778 11.9511 25.5259 11.9352 25.4778C11.9193 25.4297 11.8888 25.3877 11.8479 25.3578L10.6174 24.4641C10.5758 24.4338 10.5449 24.3911 10.529 24.3421C10.5132 24.2931 10.5132 24.2403 10.5292 24.1914C10.5451 24.1424 10.5761 24.0997 10.6177 24.0694C10.6594 24.0391 10.7095 24.0228 10.761 24.0227H12.2799C12.3313 24.0227 12.3815 24.0065 12.4232 23.9764C12.4648 23.9463 12.4959 23.9038 12.5121 23.855L12.9817 22.4085C12.9958 22.3573 13.0262 22.3122 13.0683 22.2798C13.1104 22.2475 13.1619 22.2298 13.215 22.2293C13.2681 22.2289 13.3198 22.2457 13.3625 22.2773C13.4051 22.3089 13.4363 22.3536 13.4513 22.4045Z" fill="white"/>
<path d="M13.6782 23.0995C13.4944 23.4927 13.32 23.8872 13.1536 24.2897C12.7627 25.2245 12.4138 26.1794 12.107 27.1545L11.8453 27.3423C11.804 27.3722 11.7544 27.3883 11.7035 27.3884C11.6526 27.3885 11.6029 27.3726 11.5615 27.3429C11.5202 27.3132 11.4891 27.2713 11.4729 27.223C11.4566 27.1748 11.456 27.1226 11.4709 27.074L11.9406 25.6275C11.9557 25.5791 11.9552 25.5272 11.9394 25.4791C11.9235 25.431 11.8929 25.389 11.852 25.3591L10.6216 24.4641C10.5939 24.4451 10.5706 24.4202 10.5535 24.3912C10.5363 24.3622 10.5257 24.3299 10.5223 24.2964C10.5189 24.2625 10.5227 24.2282 10.5334 24.1958C10.544 24.1635 10.5614 24.1337 10.5842 24.1084C10.6071 24.0831 10.635 24.0629 10.6662 24.0491C10.6973 24.0352 10.7311 24.0281 10.7652 24.0281H12.2801C12.3318 24.0277 12.382 24.011 12.4237 23.9804C12.4654 23.9498 12.4964 23.9069 12.5122 23.8576L12.9818 22.4112C12.9978 22.3622 13.0289 22.3196 13.0706 22.2893C13.1123 22.2591 13.1625 22.2428 13.214 22.2428C13.2655 22.2428 13.3157 22.2591 13.3573 22.2893C13.399 22.3196 13.4301 22.3622 13.4461 22.4112L13.6782 23.0995Z" fill="#DBDBDB"/>
<path d="M17.7893 16.5972L18.259 18.0437C18.2751 18.0925 18.3062 18.135 18.3479 18.1651C18.3896 18.1953 18.4397 18.2114 18.4911 18.2114H20.0114C20.0629 18.2115 20.113 18.2278 20.1547 18.2581C20.1963 18.2884 20.2273 18.3311 20.2432 18.3801C20.2591 18.429 20.2592 18.4818 20.2433 18.5308C20.2275 18.5798 20.1965 18.6225 20.155 18.6529L18.9245 19.5465C18.8839 19.5767 18.8536 19.6186 18.8378 19.6667C18.8219 19.7147 18.8213 19.7665 18.836 19.8149L19.3069 21.264C19.3214 21.3128 19.3202 21.3648 19.3037 21.4128C19.2872 21.4609 19.2561 21.5026 19.2147 21.5321C19.1734 21.5617 19.1238 21.5776 19.073 21.5776C19.0222 21.5777 18.9726 21.5618 18.9312 21.5324L17.7008 20.6387C17.6592 20.6087 17.6092 20.5926 17.5579 20.5926C17.5066 20.5926 17.4566 20.6087 17.415 20.6387L16.1845 21.5324C16.1431 21.5618 16.0936 21.5777 16.0427 21.5776C15.9919 21.5776 15.9424 21.5617 15.901 21.5321C15.8597 21.5026 15.8286 21.4609 15.812 21.4128C15.7955 21.3648 15.7944 21.3128 15.8088 21.264L16.2785 19.8176C16.2937 19.7692 16.2934 19.7172 16.2775 19.6691C16.2616 19.6209 16.231 19.579 16.1899 19.5492L14.9635 18.6529C14.9225 18.623 14.8918 18.5811 14.8756 18.533C14.8595 18.4849 14.8588 18.4329 14.8736 18.3844C14.8883 18.3359 14.9178 18.2931 14.958 18.2621C14.9981 18.2311 15.047 18.2134 15.0977 18.2114H16.6179C16.6703 18.2128 16.7218 18.1972 16.7646 18.167C16.8074 18.1368 16.8392 18.0935 16.8554 18.0437L17.3251 16.5972C17.3411 16.5482 17.3721 16.5056 17.4138 16.4754C17.4555 16.4451 17.5057 16.4288 17.5572 16.4288C17.6087 16.4288 17.6589 16.4451 17.7006 16.4754C17.7423 16.5056 17.7733 16.5482 17.7893 16.5972Z" fill="white"/>
<path d="M15.0977 18.2113H16.4396C16.2598 18.4797 16.0853 18.74 15.9136 19.007L15.766 19.2418L15.4413 19.007L14.9636 18.6541C14.9228 18.624 14.8923 18.582 14.8764 18.5339C14.8604 18.4858 14.8597 18.4339 14.8744 18.3854C14.8891 18.3369 14.9185 18.2941 14.9585 18.2629C14.9985 18.2317 15.0471 18.2137 15.0977 18.2113Z" fill="#DBDBDB"/>
<path d="M22.1288 10.6515L22.5984 12.098C22.6143 12.1469 22.6454 12.1896 22.6871 12.2197C22.7288 12.2499 22.7791 12.266 22.8305 12.2657H24.3562C24.4069 12.2677 24.4557 12.2854 24.4959 12.3164C24.536 12.3474 24.5655 12.3902 24.5803 12.4387C24.595 12.4873 24.5943 12.5392 24.5782 12.5873C24.5621 12.6354 24.5314 12.6773 24.4904 12.7072L23.2599 13.6008C23.2188 13.6306 23.1882 13.6725 23.1723 13.7207C23.1564 13.7689 23.1561 13.8208 23.1714 13.8692L23.641 15.3157C23.6554 15.3644 23.6543 15.4164 23.6378 15.4645C23.6212 15.5125 23.5901 15.5542 23.5488 15.5837C23.5074 15.6133 23.4579 15.6292 23.4071 15.6292C23.3563 15.6293 23.3067 15.6135 23.2653 15.584L22.0362 14.6904C21.9944 14.6602 21.9441 14.644 21.8926 14.644C21.8411 14.644 21.7908 14.6602 21.749 14.6904L20.5186 15.584C20.4772 15.6135 20.4276 15.6293 20.3768 15.6292C20.326 15.6292 20.2764 15.6133 20.2351 15.5837C20.1937 15.5542 20.1626 15.5125 20.1461 15.4645C20.1296 15.4164 20.1284 15.3644 20.1429 15.3157L20.6139 13.8692C20.6285 13.8208 20.6279 13.769 20.612 13.721C20.5962 13.673 20.5659 13.631 20.5253 13.6008L19.2948 12.7072C19.2533 12.6768 19.2223 12.6341 19.2065 12.5851C19.1906 12.5361 19.1907 12.4834 19.2066 12.4344C19.2225 12.3854 19.2535 12.3428 19.2952 12.3125C19.3368 12.2822 19.3869 12.2658 19.4384 12.2657H20.9587C21.0101 12.2658 21.0603 12.2496 21.1019 12.2195C21.1436 12.1893 21.1747 12.1468 21.1908 12.098L21.6605 10.6515C21.6754 10.601 21.7063 10.5567 21.7485 10.5252C21.7907 10.4937 21.842 10.4767 21.8946 10.4767C21.9473 10.4767 21.9985 10.4937 22.0407 10.5252C22.0829 10.5567 22.1138 10.601 22.1288 10.6515Z" fill="white"/>
<path d="M22.4092 11.5131C22.3112 11.5949 22.2146 11.6795 22.118 11.7653C21.5035 12.3088 20.9104 12.8764 20.3361 13.4614L19.2989 12.7086C19.2567 12.6785 19.2252 12.6357 19.209 12.5864C19.1928 12.5372 19.1927 12.484 19.2087 12.4347C19.2247 12.3854 19.2559 12.3425 19.298 12.3121C19.34 12.2817 19.3906 12.2655 19.4424 12.2658H20.9627C21.0143 12.2656 21.0644 12.2491 21.1061 12.2188C21.1477 12.1884 21.1788 12.1458 21.1948 12.0968L21.6645 10.653C21.6805 10.604 21.7115 10.5614 21.7532 10.5311C21.7949 10.5009 21.8451 10.4846 21.8966 10.4846C21.9481 10.4846 21.9983 10.5009 22.04 10.5311C22.0817 10.5614 22.1128 10.604 22.1287 10.653L22.4092 11.5131Z" fill="#DBDBDB"/>
<path d="M26.4668 5.35002L26.9365 6.79515C26.9526 6.84512 26.9845 6.88856 27.0272 6.91902C27.07 6.94947 27.1215 6.96532 27.174 6.96422H28.6943C28.7458 6.96431 28.7959 6.98067 28.8375 7.01096C28.8792 7.04126 28.9102 7.08394 28.9261 7.1329C28.942 7.18187 28.9421 7.23461 28.9262 7.2836C28.9104 7.33259 28.8794 7.37532 28.8378 7.40568L27.6074 8.29933C27.5665 8.32923 27.5359 8.37118 27.5201 8.4193C27.5042 8.46743 27.5038 8.51931 27.5188 8.56769L27.9791 10.0182C27.9941 10.0669 27.9934 10.119 27.9771 10.1673C27.9609 10.2155 27.9299 10.2574 27.8885 10.2871C27.8471 10.3168 27.7974 10.3327 27.7465 10.3326C27.6956 10.3325 27.646 10.3164 27.6047 10.2866L26.3743 9.39291C26.3325 9.36277 26.2822 9.34656 26.2307 9.34656C26.1792 9.34656 26.1289 9.36277 26.0871 9.39291L24.8567 10.2866C24.8154 10.3164 24.7658 10.3325 24.7149 10.3326C24.664 10.3327 24.6143 10.3168 24.5729 10.2871C24.5315 10.2574 24.5005 10.2155 24.4842 10.1673C24.468 10.119 24.4673 10.0669 24.4823 10.0182L24.9519 8.57172C24.967 8.52334 24.9666 8.47145 24.9507 8.42333C24.9348 8.37521 24.9043 8.33326 24.8634 8.30335L23.6329 7.4097C23.5913 7.37935 23.5604 7.33662 23.5446 7.28763C23.5287 7.23864 23.5288 7.18589 23.5447 7.13693C23.5606 7.08796 23.5916 7.04528 23.6332 7.01499C23.6749 6.98469 23.725 6.96833 23.7765 6.96825H25.2954C25.347 6.9682 25.3973 6.95181 25.439 6.92144C25.4807 6.89107 25.5117 6.84827 25.5276 6.79918L25.9972 5.35404C26.0113 5.30288 26.0418 5.25772 26.0839 5.22539C26.126 5.19306 26.1774 5.17533 26.2305 5.17487C26.2836 5.17442 26.3354 5.19127 26.378 5.22287C26.4207 5.25447 26.4518 5.29911 26.4668 5.35002Z" fill="white"/>
<path d="M28.8982 7.08369C28.7828 7.14273 28.6688 7.20579 28.5547 7.26618C27.8713 7.63562 27.2031 8.02698 26.55 8.44026C25.8684 8.86786 25.2042 9.32049 24.5574 9.79818L24.96 8.5731C24.9722 8.52921 24.9722 8.48281 24.96 8.43892C24.9468 8.38177 24.9134 8.33128 24.8661 8.29669L23.6356 7.40304C23.5937 7.37296 23.5625 7.33033 23.5465 7.28133C23.5304 7.23232 23.5304 7.17948 23.5464 7.13047C23.5624 7.08145 23.5936 7.03879 23.6354 7.00867C23.6773 6.97855 23.7276 6.96253 23.7792 6.96293H25.2954C25.3469 6.96318 25.3971 6.94707 25.4389 6.91692C25.4806 6.88677 25.5117 6.84415 25.5276 6.7952L25.9972 5.34738C26.0132 5.29842 26.0443 5.25578 26.086 5.22554C26.1277 5.1953 26.1778 5.17902 26.2293 5.17902C26.2809 5.17902 26.331 5.1953 26.3727 5.22554C26.4144 5.25578 26.4455 5.29842 26.4615 5.34738L26.9311 6.7952C26.9473 6.8462 26.9799 6.89042 27.0238 6.92099C27.0677 6.95157 27.1205 6.96678 27.174 6.96427H28.6943C28.7357 6.96464 28.7764 6.97586 28.8121 6.99681C28.8479 7.01776 28.8776 7.04771 28.8982 7.08369Z" fill="#DBDBDB"/>
</g>
<g clip-path="url(#clip1_2296_676)">
<path d="M91.3757 72.7645C110.852 72.7645 126.64 56.976 126.64 37.4999C126.64 18.0238 110.852 2.23531 91.3757 2.23531C71.8996 2.23531 56.1111 18.0238 56.1111 37.4999C56.1111 56.976 71.8996 72.7645 91.3757 72.7645Z" fill="#F0F0F0" stroke="white" stroke-width="1.82833"/>
<path d="M91.3757 52.4349C99.624 52.4349 106.311 45.7483 106.311 37.4999C106.311 29.2516 99.624 22.565 91.3757 22.565C83.1273 22.565 76.4407 29.2516 76.4407 37.4999C76.4407 45.7483 83.1273 52.4349 91.3757 52.4349Z" fill="#D80027"/>
</g>
<g clip-path="url(#clip2_2296_676)">
<path d="M147.293 72.7645C166.769 72.7645 182.557 56.976 182.557 37.4999C182.557 18.0238 166.769 2.23531 147.293 2.23531C127.817 2.23531 112.028 18.0238 112.028 37.4999C112.028 56.976 127.817 72.7645 147.293 72.7645Z" fill="#F0F0F0" stroke="white" stroke-width="1.82833"/>
<path d="M123.003 61.7895C109.589 48.3747 109.589 26.6252 123.003 13.2104C123.002 13.2119 142.812 37.5 142.812 37.5L123.003 61.7895Z" fill="black"/>
<path d="M142.812 37.4998L117.498 20.3934C116.713 21.7576 116.021 23.1815 115.427 24.6554L128.242 37.4999L115.427 50.3451C116.021 51.8179 116.713 53.2409 117.497 54.6042L142.812 37.4998Z" fill="#FFDA44"/>
<path d="M181.353 33.0194H142.811L123.003 13.2109C120.868 15.3454 119.014 17.7595 117.498 20.3936L134.571 37.4999L117.497 54.604C119.013 57.2388 120.868 59.6536 123.003 61.7887L142.811 41.9803H181.353C181.543 40.5137 181.643 39.0184 181.643 37.4999C181.643 35.9813 181.543 34.486 181.353 33.0194Z" fill="#6DA544"/>
<path d="M126.379 64.7491C132.171 69.2015 139.422 71.8504 147.293 71.8504C163.164 71.8504 176.518 61.0862 180.46 46.4609H144.667L126.379 64.7491Z" fill="#0052B4"/>
<path d="M180.46 28.5388C176.518 13.9136 163.164 3.14941 147.293 3.14941C139.422 3.14941 132.171 5.79829 126.379 10.2507L144.667 28.5388H180.46Z" fill="#D80027"/>
</g>
<g clip-path="url(#clip3_2296_676)">
<path d="M203.21 72.7645C222.686 72.7645 238.475 56.976 238.475 37.4999C238.475 18.0238 222.686 2.23531 203.21 2.23531C183.734 2.23531 167.945 18.0238 167.945 37.4999C167.945 56.976 183.734 72.7645 203.21 72.7645Z" fill="#F0F0F0" stroke="white" stroke-width="1.82833"/>
<path d="M203.21 3.14941C189.591 3.14941 177.824 11.0748 172.268 22.5649H234.152C228.596 11.0748 216.828 3.14941 203.21 3.14941Z" fill="#338AF3"/>
<path d="M203.21 71.8502C216.829 71.8502 228.596 63.9247 234.152 52.4346H172.268C177.824 63.9247 189.591 71.8502 203.21 71.8502Z" fill="#338AF3"/>
<path d="M213.477 37.4998L209.282 39.4732L211.516 43.536L206.96 42.6645L206.383 47.2664L203.21 43.8818L200.037 47.2664L199.46 42.6645L194.904 43.5359L197.138 39.473L192.943 37.4998L197.138 35.5264L194.904 31.4636L199.46 32.335L200.037 27.7331L203.21 31.1177L206.383 27.7331L206.96 32.335L211.516 31.4636L209.282 35.5265L213.477 37.4998Z" fill="#FFDA44"/>
</g>
<g clip-path="url(#clip4_2296_676)">
<path d="M259.127 72.7645C278.603 72.7645 294.391 56.976 294.391 37.4999C294.391 18.0238 278.603 2.23531 259.127 2.23531C239.651 2.23531 223.862 18.0238 223.862 37.4999C223.862 56.976 239.651 72.7645 259.127 72.7645Z" fill="#D80027" stroke="white" stroke-width="1.82833"/>
<path d="M279.429 31.341H263.917L259.127 16.5945L254.337 31.341H238.825L251.371 40.452L246.581 55.1985L259.127 46.0876L271.673 55.1985L266.883 40.452L279.429 31.341ZM254.887 39.3114L256.51 34.3199H261.757L263.38 39.3114L259.14 42.3976L254.887 39.3114ZM260.777 31.341H257.476L259.127 26.2555L260.777 31.341ZM265.916 37.4731L264.897 34.3333H270.237L265.916 37.4731ZM253.371 34.3333L252.351 37.4731L248.03 34.3333H253.371ZM252.257 47.3891L253.907 42.3037L256.577 44.2493L252.257 47.3891ZM261.663 44.2493L264.333 42.3037L265.984 47.3891L261.663 44.2493Z" fill="#6DA544"/>
</g>
<defs>
<clipPath id="clip0_2296_676">
<rect width="70.9171" height="73.1332" fill="white" transform="translate(0 0.93335)"/>
</clipPath>
<clipPath id="clip1_2296_676">
<rect width="69.809" height="73.1332" fill="white" transform="translate(55.9171 0.93335)"/>
</clipPath>
<clipPath id="clip2_2296_676">
<rect width="70.9171" height="73.1332" fill="white" transform="translate(110.726 0.93335)"/>
</clipPath>
<clipPath id="clip3_2296_676">
<rect width="70.9171" height="73.1332" fill="white" transform="translate(166.643 0.93335)"/>
</clipPath>
<clipPath id="clip4_2296_676">
<rect width="70.9171" height="73.1332" fill="white" transform="translate(222.56 0.93335)"/>
</clipPath>
</defs>
</svg>
