<svg width="196" height="69" viewBox="0 0 196 69" fill="none" xmlns="http://www.w3.org/2000/svg">
<path d="M38.3796 5.69582L40.9041 14.5525C41.1525 15.4216 42.0423 15.939 42.9114 15.7113L51.8509 13.4765C59.5074 11.552 64.8876 20.8847 59.4039 26.5546L53.0097 33.1764C52.3889 33.8179 52.3889 34.8526 53.0097 35.4941L59.4039 42.1159C64.8876 47.7859 59.5074 57.1185 51.8509 55.1941L42.9114 52.9592C42.0423 52.7316 41.1525 53.2489 40.9041 54.118L38.3796 62.9747C36.2068 70.5691 25.4463 70.5691 23.2735 62.9747L20.7489 54.118C20.5006 53.2489 19.6108 52.7316 18.7417 52.9592L9.80218 55.1941C2.14568 57.1185 -3.23456 47.7859 2.24915 42.1159L8.64336 35.4941C9.26416 34.8526 9.26416 33.8179 8.64336 33.1764L2.24915 26.5546C-3.25526 20.8847 2.14568 11.552 9.80218 13.4765L18.7417 15.7113C19.6108 15.939 20.5006 15.4216 20.7489 14.5525L23.2735 5.69582C25.4463 -1.89861 36.2068 -1.89861 38.3796 5.69582Z" fill="#FBBF03"/>
<path d="M61.8249 36.5295C62.632 32.3908 62.2595 31.0044 61.887 28.6453C61.3076 24.9412 61.5146 22.2097 67.2052 22.0028C72.8751 21.7959 74.6755 23.5134 74.8617 28.7695C75.0479 34.0256 71.468 34.1704 70.3506 32.1839C69.2331 30.218 70.5368 27.8176 68.9227 27.8176C66.3568 27.8176 64.722 40.4198 68.1157 40.337C71.5094 40.2749 68.0536 35.2672 71.9439 34.9361C75.8343 34.605 76.0826 43.5445 71.7577 45.5931C67.0603 47.8073 61.6387 46.5243 61.3283 43.2341C61.0179 39.9438 61.8249 36.5295 61.8249 36.5295Z" fill="white"/>
<path d="M95.6791 39.1979C97.438 33.8383 96.3413 29.5755 96.3413 25.9749C96.3413 22.3743 101.846 21.5466 105.881 23.3676C109.916 25.2093 110.827 28.396 105.964 28.6443C101.101 28.9134 101.349 32.1415 104.308 32.4933C107.267 32.8451 106.895 35.9904 103.439 36.2181C100.19 36.425 101.08 39.8808 104.639 39.2393C107.06 38.8047 111.385 38.1425 109.254 42.6951C107.267 46.9372 100.914 46.6682 98.183 45.2817C96.3827 44.4126 94.4168 43.0055 95.6791 39.1979Z" fill="white"/>
<path d="M27.9501 38.0599C28.6951 33.3625 28.1157 28.9963 27.9501 25.8302C27.7846 22.6434 32.0267 22.271 36.5378 22.6021C41.0489 22.9538 41.7732 29.4101 39.4142 31.2105C37.0551 33.0108 35.9584 31.8726 36.0619 30.2379C36.2067 28.0858 33.5994 27.4443 33.5787 30.5069C33.558 33.5695 32.6061 36.7976 33.2269 38.5152C33.8477 40.2534 36.5585 41.1018 36.7447 39.0532C36.8689 37.7495 35.1927 38.8256 34.5099 36.8597C34.3029 36.2596 33.8063 33.9833 38.2967 34.1903C42.7665 34.3765 42.7251 39.2601 41.8146 41.9089C41.0489 44.1023 38.214 46.7925 32.0474 46.0268C25.8808 45.2612 27.2879 42.2193 27.9501 38.0599Z" fill="white"/>
<path d="M58.5761 37.8124C59.259 43.6479 57.6863 46.5243 50.8989 46.0277C44.1115 45.5103 44.4012 41.4337 44.753 36.3846C45.1876 29.7628 43.1389 29.3903 45.1048 25.8517C47.6294 21.2992 55.7825 21.5682 58.3278 26.576C60.6661 31.1906 57.9139 31.9769 58.5761 37.8124Z" fill="white"/>
<path d="M159.932 26.556C157.386 21.5276 149.212 21.2793 146.709 25.8318C144.743 29.3703 146.812 29.7428 146.357 36.3646C146.026 41.4138 145.736 45.4904 152.523 46.0077C159.311 46.525 160.863 43.628 160.201 37.7925C159.518 31.9777 162.27 31.1913 159.932 26.556ZM155.358 34.1505L156.124 34.9368C156.579 35.4128 156.124 36.1991 155.483 36.0336L154.427 35.7645C154.386 35.7438 154.324 35.7852 154.324 35.8266L154.013 36.882C153.827 37.5235 152.917 37.5235 152.73 36.882L152.441 35.8266C152.42 35.7645 152.379 35.7438 152.316 35.7645L151.261 36.0336C150.62 36.1991 150.164 35.4128 150.62 34.9368L151.385 34.1505C151.427 34.1091 151.427 34.047 151.385 34.0263L150.62 33.24C150.164 32.764 150.599 31.9777 151.261 32.1432L152.316 32.4122C152.379 32.4329 152.42 32.3915 152.441 32.3502L152.73 31.2948C152.917 30.6533 153.827 30.6533 154.013 31.2948L154.324 32.3502C154.344 32.3915 154.386 32.4329 154.427 32.4122L155.483 32.1432C156.124 31.9777 156.579 32.764 156.124 33.24L155.358 34.0263C155.317 34.047 155.317 34.1091 155.358 34.1505Z" fill="white"/>
<path d="M89.078 37.4813C86.2223 34.3774 91.6646 35.7638 91.2507 29.3075C90.8369 22.8305 82.9528 20.9681 78.9797 23.203C75.0066 25.4379 78.752 31.1906 77.7794 39.0126C77.4897 41.3717 74.7168 46.4001 80.7386 46.3794C86.7396 46.338 82.2906 38.2263 83.8426 38.1228C85.3739 38.0194 85.1669 40.337 85.6429 42.7581C86.1188 45.2206 89.2642 48.1177 93.4649 44.6826C97.0035 41.7648 91.9336 40.5853 89.078 37.4813ZM84.215 32.6805C83.5529 32.6391 83.0355 31.7079 83.0976 30.5905C83.1597 29.473 83.7391 28.5832 84.422 28.6246C85.0842 28.666 85.6015 29.5972 85.5394 30.7146C85.4773 31.8321 84.8772 32.7012 84.215 32.6805Z" fill="white"/>
<path d="M173.982 37.4813C171.127 34.3774 176.569 35.7638 176.155 29.3075C175.741 22.8305 167.857 20.9681 163.884 23.203C159.911 25.4379 163.656 31.1906 162.684 39.0126C162.394 41.3717 159.621 46.4001 165.643 46.3794C171.644 46.338 167.195 38.2263 168.747 38.1228C170.278 38.0194 170.071 40.337 170.547 42.7581C171.023 45.2206 174.169 48.1177 178.369 44.6826C181.908 41.7648 176.838 40.5853 173.982 37.4813ZM169.099 32.6805C168.437 32.6391 167.919 31.7079 167.981 30.5905C168.043 29.473 168.623 28.5832 169.306 28.6246C169.968 28.666 170.485 29.5972 170.423 30.7146C170.361 31.8321 169.782 32.7012 169.099 32.6805Z" fill="white"/>
<path d="M184.039 32.784C180.977 29.9904 180.894 22.7064 187.826 22.3753C194.758 22.0649 195.007 25.831 195.089 27.59C195.172 29.3282 194.924 31.2113 193.082 31.1699C191.158 31.1285 191.365 28.0659 189.461 28.2935C187.764 28.4798 187.661 30.694 190.516 32.4736C194.51 34.9775 196 36.0949 196 39.9645C196 44.3308 193.144 46.3174 187.93 46.3174C182.736 46.3174 180.501 42.965 180.501 38.7229C180.501 34.9361 183.708 35.0602 185.136 36.8192C185.902 37.7503 187.516 39.4679 188.53 38.6815C190.061 37.502 187.847 35.888 186.109 34.5222C184.37 33.1564 184.039 32.784 184.039 32.784Z" fill="white"/>
<path d="M127.423 28.6249C124.774 26.5349 126.491 22.8722 128.933 22.6653C130.982 22.4997 131.789 23.4102 136.9 22.6653C142.011 21.9203 143.853 23.2447 143.543 26.4314C143.17 30.4252 136.776 27.404 137.459 31.7289C138.162 36.0331 141.121 45.6554 135.824 46.1521C130.527 46.6694 130.278 44.4759 131.623 38.0817C132.968 31.6875 133.113 29.8044 130.651 29.4113C129.616 29.2457 127.981 29.0595 127.423 28.6249Z" fill="white"/>
<path d="M125.126 33.343C125.519 25.6451 124.919 22.4997 119.311 22.3549C113.703 22.2307 113.248 25.6451 112.917 28.6042C112.585 31.5633 113.144 32.598 112.047 38.1438C111.096 42.9446 109.254 45.9038 113.786 46.2349C118.317 46.5659 116.455 45.7796 116.993 41.1029C117.531 36.4263 119.787 37.7506 119.787 42.3445C119.787 46.9384 122.332 46.2969 124.794 44.7863C127.257 43.2757 124.732 41.0409 125.126 33.343ZM119.145 34.3776C117.386 34.7708 117.428 28.3973 119.249 27.5902C121.07 26.7832 120.946 33.9638 119.145 34.3776Z" fill="white"/>
<path d="M52.6164 31.2741L52.9061 32.3294C52.9268 32.3708 52.9682 32.4122 53.0303 32.3915L54.0857 32.1225C54.7271 31.957 55.1824 32.7433 54.7271 33.2193L53.9615 34.0056C53.9201 34.047 53.9201 34.1091 53.9615 34.1504L54.7271 34.9368C55.1824 35.4127 54.7271 36.1991 54.0857 36.0335L53.0303 35.7645C52.9889 35.7438 52.9268 35.7852 52.9061 35.8266L52.6164 36.882C52.4302 37.5234 51.5197 37.5234 51.3335 36.882L51.0437 35.8266C51.0231 35.7852 50.9817 35.7438 50.9196 35.7645L49.8642 36.0335C49.2227 36.1991 48.7675 35.4127 49.2227 34.9368L49.9884 34.1504C50.0298 34.1091 50.0298 34.047 49.9884 34.0056L49.2227 33.2193C48.7675 32.7433 49.2227 31.957 49.8642 32.1225L50.9196 32.3915C50.961 32.4122 51.0231 32.3708 51.0437 32.3294L51.3335 31.2741C51.5197 30.6326 52.4302 30.6326 52.6164 31.2741Z" fill="#FBBF03"/>
</svg>
