<svg width="26" height="29" viewBox="0 0 26 29" fill="none" xmlns="http://www.w3.org/2000/svg">
<path d="M16.1876 2.40236L17.2524 6.13792C17.3571 6.50449 17.7324 6.72269 18.099 6.62668L21.8695 5.68406C25.0988 4.87237 27.3681 8.80866 25.0552 11.2001L22.3582 13.9931C22.0964 14.2636 22.0964 14.7 22.3582 14.9706L25.0552 17.7635C27.3681 20.155 25.0988 24.0913 21.8695 23.2796L18.099 22.337C17.7324 22.2409 17.3571 22.4591 17.2524 22.8257L16.1876 26.5613C15.2712 29.7644 10.7326 29.7644 9.81621 26.5613L8.75141 22.8257C8.64667 22.4591 8.27137 22.2409 7.9048 22.337L4.13433 23.2796C0.904999 24.0913 -1.36426 20.155 0.948638 17.7635L3.64557 14.9706C3.90741 14.7 3.90741 14.2636 3.64557 13.9931L0.948638 11.2001C-1.37299 8.80866 0.904999 4.87237 4.13433 5.68406L7.9048 6.62668C8.27137 6.72269 8.64667 6.50449 8.75141 6.13792L9.81621 2.40236C10.7326 -0.800787 15.2712 -0.800787 16.1876 2.40236Z" fill="#9769EE"/>
</svg>
